<svg width="11" height="12" viewBox="0 0 11 12" fill="none" xmlns="http://www.w3.org/2000/svg">
<path fill-rule="evenodd" clip-rule="evenodd" d="M2.58978 6.12021C2.58978 7.4674 3.07344 8.47581 4.04076 9.14558C4.29379 9.32074 4.5968 9.42897 4.90129 9.467C6.03131 9.60847 6.91928 9.31445 7.56712 8.58419C8.10981 7.95095 8.38079 7.14778 8.38079 6.17336C8.38079 5.19909 8.10981 4.39577 7.56712 3.76282C7.02443 3.1441 6.32008 2.83496 5.45362 2.83496C4.63625 2.83496 3.95296 3.14799 3.40345 3.77345C2.86076 4.40655 2.58978 5.18831 2.58978 6.12021V6.12021ZM8.23293 0.957621H10.0179C10.351 0.957621 10.6211 1.23023 10.6211 1.56647V10.7409C10.6211 11.0757 10.3524 11.3468 10.021 11.3468H8.23293V10.2589C7.25374 11.183 6.20025 11.6454 5.07305 11.6454C3.6501 11.6454 2.47351 11.1266 1.54342 10.0882C0.620443 9.02847 0.15918 7.70583 0.15918 6.12032C0.15918 4.47402 0.674727 3.11785 1.70627 2.05136C2.31451 1.42275 3.1086 0.979777 3.9586 0.790252C5.58711 0.42707 7.01139 0.884266 8.23293 2.16289V0.957621Z" fill="#D83275"/>
</svg>
