<svg width="11" height="18" viewBox="0 0 11 18" fill="none" xmlns="http://www.w3.org/2000/svg">
<path fill-rule="evenodd" clip-rule="evenodd" d="M9.84875 3.65718L8.90887 4.21947C8.63982 4.3804 8.28283 4.31678 8.10559 4.05659C7.83713 3.66272 7.57847 3.39236 7.3293 3.2458C6.9769 3.01795 6.52246 2.90447 5.96612 2.90447C5.28283 2.90447 4.71537 3.10014 4.26464 3.49116C3.81405 3.87515 3.58832 4.35885 3.58832 4.94179C3.58832 5.74541 4.1801 6.39243 5.36366 6.88316L6.99114 7.55503C8.31575 8.09531 9.28426 8.75506 9.89725 9.53382C10.5101 10.3124 10.8167 11.2671 10.8167 12.3978C10.8167 13.9124 10.3162 15.164 9.316 16.1524C8.30834 17.1481 7.05832 17.6455 5.56448 17.6455C4.14836 17.6455 2.97918 17.2226 2.05606 16.3763C1.26702 15.6414 0.735598 14.6468 0.46151 13.3921C0.390911 13.0688 0.609974 12.7462 0.930634 12.6749L2.21743 12.3887C2.54639 12.3156 2.87818 12.5303 2.93913 12.8647C3.05586 13.5053 3.22316 13.9685 3.4403 14.2537C3.94769 14.9646 4.68734 15.3203 5.65955 15.3203C6.42739 15.3203 7.06515 15.0606 7.57239 14.5417C8.07963 14.0227 8.33325 13.3646 8.33325 12.5683C8.33325 12.2484 8.28935 11.9551 8.2011 11.6884C8.11285 11.4217 7.97551 11.1765 7.78893 10.9523C7.6025 10.7283 7.36104 10.5187 7.06515 10.3231C6.76926 10.1274 6.41671 9.94071 6.00825 9.76301L4.43372 9.10177C2.20022 8.14876 1.08385 6.75501 1.08385 4.92039C1.08385 3.68308 1.55238 2.64848 2.48929 1.81642C3.42606 0.977631 4.59227 0.557861 5.98718 0.557861C7.67458 0.557861 9.03034 1.30159 10.0543 2.78935C10.2522 3.07678 10.1469 3.47889 9.84875 3.65718" fill="#D83275"/>
</svg>
