<svg width="8" height="12" viewBox="0 0 8 12" fill="none" xmlns="http://www.w3.org/2000/svg">
<path fill-rule="evenodd" clip-rule="evenodd" d="M0.698242 1.57449C0.698242 1.23391 0.971886 0.957559 1.30945 0.957559H3.0759V1.88557C3.51299 1.42314 3.90024 1.10696 4.2384 0.936301C4.58339 0.758752 4.99244 0.669678 5.46439 0.669678C5.90637 0.669678 6.36229 0.772225 6.83216 0.97702C7.1632 1.12133 7.32071 1.50847 7.15949 1.83378L6.62926 2.90461C6.48198 3.20162 6.12825 3.31869 5.82835 3.18186C5.55501 3.05731 5.28566 2.99488 5.02048 2.99488C3.72434 2.99488 3.0759 3.98323 3.0759 5.96022V10.7231C3.0759 11.0675 2.79929 11.3467 2.45801 11.3467H1.31628C0.975 11.3467 0.698242 11.0675 0.698242 10.7231V1.57449Z" fill="#D83275"/>
</svg>
