<svg width="5" height="17" viewBox="0 0 5 17" fill="none" xmlns="http://www.w3.org/2000/svg">
<path fill-rule="evenodd" clip-rule="evenodd" d="M3.68648 6.59093V15.7378C3.68648 16.0741 3.41655 16.3465 3.08343 16.3465H1.91203C1.57891 16.3465 1.30882 16.0741 1.30882 15.7378V6.59093C1.30882 6.24107 1.58988 5.95738 1.9365 5.95738H3.05881C3.40542 5.95738 3.68648 6.24107 3.68648 6.59093M0.949463 1.63741C0.949463 1.21764 1.10119 0.855209 1.4039 0.549513C1.70661 0.243968 2.06969 0.0908203 2.49239 0.0908203C2.92206 0.0908203 3.28855 0.243968 3.59141 0.549513C3.89412 0.848173 4.04585 1.2145 4.04585 1.64804C4.04585 2.08173 3.89412 2.45195 3.59141 2.7575C3.29552 3.06319 2.93259 3.21619 2.50292 3.21619C2.0734 3.21619 1.70661 3.06319 1.4039 2.7575C1.10119 2.45195 0.949463 2.07844 0.949463 1.63741" fill="#D83275"/>
</svg>
