<svg width="11" height="17" viewBox="0 0 11 17" fill="none" xmlns="http://www.w3.org/2000/svg">
<path fill-rule="evenodd" clip-rule="evenodd" d="M8.36322 6.21585C8.36322 5.22017 8.09536 4.40952 7.56009 3.7839C7.0174 3.15081 6.33426 2.83463 5.50992 2.83463C4.63648 2.83463 3.92857 3.14018 3.38588 3.75187C2.84319 4.36371 2.57222 5.16672 2.57222 6.16255C2.57222 7.13683 2.84319 7.94014 3.38588 8.57324C3.92115 9.19181 4.62595 9.5011 5.49939 9.5011C6.32373 9.5011 7.00361 9.18807 7.53888 8.56261C8.08839 7.93684 8.36322 7.15464 8.36322 6.21585M2.09616 17.0001H0.945223C0.606469 17.0001 0.331787 16.723 0.331787 16.381V1.57404C0.331787 1.23361 0.605282 0.957559 0.942554 0.957559H2.70959V2.08827C3.64636 1.14259 4.71053 0.669678 5.90092 0.669678C7.31704 0.669678 8.48325 1.19604 9.39881 2.24831C10.3288 3.29369 10.7939 4.61258 10.7939 6.20558C10.7939 7.76295 10.3325 9.06044 9.40949 10.0989C8.49378 11.1298 7.3381 11.6455 5.94334 11.6455C4.73856 11.6455 3.6606 11.1587 2.70959 10.1843V16.381C2.70959 16.723 2.43491 17.0001 2.09616 17.0001" fill="#D83275"/>
</svg>
