<?xml version="1.0" encoding="utf-8"?>
<!-- Generator: Adobe Illustrator 24.2.1, SVG Export Plug-In . SVG Version: 6.00 Build 0)  -->
<svg version="1.1" id="Layer_1" xmlns="http://www.w3.org/2000/svg" xmlns:xlink="http://www.w3.org/1999/xlink" x="0px" y="0px"
	 viewBox="0 0 230 62" style="enable-background:new 0 0 230 62;" xml:space="preserve">
<style type="text/css">
	.st0{fill:#FFFFFF;}
	.st1{fill:#58D908;}
</style>
<g>
	<path class="st0" d="M28.7,21.1c-0.3,0-0.6,0.1-0.8,0.3c-0.2,0.2-0.3,0.5-0.3,0.8V34l-9.4-12.5c-0.1-0.2-0.3-0.3-0.5-0.4
		c-0.5-0.2-1-0.1-1.4,0.2c-0.2,0.2-0.4,0.5-0.4,0.9v15c0,0.3,0.1,0.6,0.3,0.8c0.4,0.4,1.2,0.4,1.7,0c0.2-0.2,0.3-0.5,0.3-0.8V25.6
		l9.4,12.5c0.1,0.1,0.3,0.2,0.4,0.3c0.2,0.1,0.3,0.1,0.5,0.1c0.4,0,0.7-0.1,0.9-0.3c0.2-0.2,0.4-0.5,0.4-0.9v-15
		c0-0.3-0.1-0.6-0.3-0.8C29.3,21.2,29,21.1,28.7,21.1z"/>
	<path class="st0" d="M43.1,36.1H36V22.3c0-0.3-0.1-0.6-0.4-0.9s-0.5-0.4-0.9-0.4c-0.4,0-0.7,0.1-0.9,0.4c-0.2,0.2-0.4,0.5-0.4,0.9
		v15c0,0.3,0.1,0.6,0.3,0.9c0.2,0.2,0.5,0.4,0.9,0.4h8.4c0.3,0,0.6-0.1,0.9-0.3c0.2-0.2,0.4-0.5,0.4-0.9c0-0.3-0.1-0.6-0.4-0.9
		C43.8,36.2,43.5,36.1,43.1,36.1z"/>
	<path class="st0" d="M56,21.7c-0.8-0.5-1.6-0.7-2.5-0.7h-5.7c-0.3,0-0.6,0.1-0.9,0.4c-0.2,0.2-0.4,0.5-0.4,0.9v15
		c0,0.3,0.1,0.6,0.3,0.9c0.2,0.2,0.5,0.4,0.9,0.4c0.3,0,0.6-0.1,0.9-0.4c0.2-0.2,0.3-0.5,0.3-0.9v-5.5h4.5c0.9,0,1.8-0.2,2.5-0.7
		c0.8-0.5,1.3-1.1,1.8-1.9c0.4-0.8,0.6-1.7,0.6-2.7c0-1-0.2-1.9-0.6-2.7C57.4,22.8,56.8,22.2,56,21.7z M49,23.4h4.5
		c0.5,0,0.9,0.1,1.3,0.4c0.4,0.2,0.7,0.6,0.9,1c0.2,0.4,0.3,0.9,0.3,1.5c0,0.6-0.1,1.1-0.3,1.5c-0.2,0.5-0.5,0.8-0.9,1.1
		c-0.4,0.3-0.8,0.4-1.2,0.4H49V23.4z"/>
	<path class="st1" d="M60.3,35.3h-0.2c-0.4,0-0.7,0.1-1,0.4c-0.2,0.2-0.3,0.6-0.3,1v0.5c0,0.4,0.1,0.7,0.3,1c0.2,0.2,0.6,0.4,1,0.4
		h0.2c0.4,0,0.8-0.1,1-0.4c0.2-0.2,0.3-0.6,0.3-1v-0.5c0-0.4-0.1-0.8-0.3-1C61,35.4,60.7,35.3,60.3,35.3z"/>
	<path class="st1" d="M74.9,30.1c-0.5-0.4-1.1-0.7-1.8-1c-0.7-0.3-1.4-0.5-2.2-0.7c-0.7-0.2-1.4-0.4-2-0.7c-0.6-0.2-1-0.5-1.3-0.9
		c-0.3-0.4-0.5-0.8-0.5-1.3c0-0.5,0.1-0.9,0.4-1.2c0.3-0.4,0.7-0.6,1.2-0.8c0.9-0.3,2.1-0.4,3.3-0.1c0.5,0.1,0.9,0.3,1.3,0.6
		c0.4,0.2,0.7,0.5,1,0.8c0.5,0.4,1.1,0.3,1.5-0.2c0.2-0.2,0.4-0.5,0.4-0.8c0-0.4-0.2-0.7-0.6-1.1c-0.6-0.6-1.3-1.1-2.2-1.4
		c-0.9-0.3-1.9-0.5-2.9-0.5c-1.1,0-2.2,0.2-3.1,0.6c-0.9,0.4-1.6,1-2.1,1.7c-0.5,0.7-0.8,1.6-0.8,2.6c0,0.8,0.1,1.5,0.4,2
		c0.3,0.6,0.6,1.1,1.1,1.5c0.5,0.4,1,0.7,1.7,1c0.6,0.3,1.3,0.5,2.1,0.7c0.8,0.2,1.6,0.4,2.2,0.7c0.6,0.3,1.1,0.6,1.4,1
		c0.3,0.4,0.5,0.8,0.5,1.4c0,0.5-0.1,0.9-0.4,1.2c-0.3,0.4-0.7,0.7-1.3,0.9c-0.5,0.2-1.1,0.3-1.8,0.3c-0.9,0-1.7-0.2-2.4-0.5
		c-0.7-0.3-1.4-0.8-2-1.4c-0.5-0.5-1.2-0.4-1.7,0c-0.2,0.2-0.3,0.5-0.3,0.9c0,0.2,0,0.4,0.1,0.6c0.1,0.2,0.2,0.3,0.3,0.4
		c0.9,0.8,1.8,1.4,2.7,1.7c0.9,0.4,2,0.5,3.2,0.5c1.1,0,2.1-0.2,3-0.6c0.9-0.4,1.6-1,2.1-1.7c0.5-0.7,0.8-1.6,0.8-2.5
		c0-0.9-0.1-1.6-0.4-2.2C75.8,31,75.4,30.5,74.9,30.1z"/>
	<path class="st1" d="M84.3,25.6h-2v-2c0-0.3-0.1-0.6-0.3-0.9c-0.4-0.5-1.3-0.5-1.7,0c-0.2,0.2-0.4,0.5-0.4,0.9v2h-1.3
		c-0.3,0-0.6,0.1-0.8,0.3c-0.2,0.2-0.4,0.5-0.4,0.8c0,0.3,0.1,0.6,0.4,0.8c0.2,0.2,0.5,0.3,0.8,0.3H80v7.4c0,0.8,0.1,1.4,0.4,1.8
		c0.2,0.5,0.5,0.8,0.9,1c0.4,0.2,0.7,0.3,1.1,0.3c0.3,0,0.6,0,0.9,0c0.5,0,0.9-0.1,1.3-0.3c0.4-0.2,0.6-0.6,0.6-1
		c0-0.3-0.1-0.6-0.3-0.8c-0.3-0.4-0.8-0.4-1.2-0.2c-0.2,0.1-0.5,0.1-0.8,0c-0.1-0.1-0.2-0.1-0.3-0.3c-0.1-0.2-0.1-0.4-0.1-0.7v-7.3
		h2c0.3,0,0.6-0.1,0.8-0.3c0.2-0.2,0.3-0.5,0.3-0.8c0-0.3-0.1-0.6-0.3-0.8C85,25.7,84.7,25.6,84.3,25.6z"/>
	<path class="st1" d="M97.3,25.5c-0.4,0-0.7,0.1-0.9,0.4c-0.2,0.2-0.3,0.5-0.3,0.9v6.6c0,1-0.3,1.8-0.8,2.3
		c-0.5,0.5-1.3,0.8-2.2,0.8c-0.9,0-1.7-0.3-2.2-0.8s-0.8-1.3-0.8-2.3v-6.6c0-0.4-0.1-0.7-0.3-0.9c-0.4-0.5-1.3-0.5-1.7,0
		c-0.2,0.2-0.4,0.5-0.4,0.9v6.6c0,1.7,0.5,3,1.4,4c1,0.9,2.3,1.4,4,1.4c1.7,0,3-0.5,4-1.4c1-0.9,1.4-2.3,1.4-4v-6.6
		c0-0.4-0.1-0.7-0.3-0.9C97.9,25.6,97.7,25.5,97.3,25.5z"/>
	<path class="st1" d="M112,20.1c-0.4,0-0.7,0.1-0.9,0.4c-0.2,0.2-0.3,0.5-0.3,0.9v5.5c-0.1-0.1-0.3-0.3-0.4-0.4
		c-0.5-0.4-1-0.7-1.6-1c-0.6-0.2-1.3-0.4-2-0.4c-1.1,0-2.1,0.3-3,0.9c-0.9,0.6-1.6,1.4-2.2,2.4c-0.5,1-0.8,2.2-0.8,3.5
		c0,1.3,0.3,2.5,0.8,3.5c0.5,1,1.3,1.8,2.2,2.4c0.9,0.6,2,0.9,3.1,0.9c0.7,0,1.3-0.1,1.9-0.4c0.6-0.2,1.1-0.6,1.6-1
		c0.2-0.2,0.3-0.3,0.5-0.5v0.3c0,0.3,0.1,0.6,0.3,0.9c0.2,0.2,0.5,0.4,0.9,0.4c0.3,0,0.6-0.1,0.9-0.4c0.2-0.2,0.3-0.5,0.3-0.9V21.3
		c0-0.4-0.1-0.7-0.3-0.9C112.7,20.2,112.4,20.1,112,20.1z M110.4,29.6c0.3,0.7,0.5,1.5,0.5,2.3c0,0.9-0.2,1.6-0.5,2.3
		c-0.3,0.7-0.8,1.2-1.4,1.6c-0.6,0.4-1.2,0.6-2,0.6c-0.7,0-1.4-0.2-2-0.6c-0.6-0.4-1-0.9-1.4-1.6c-0.3-0.7-0.5-1.5-0.5-2.3
		c0-0.9,0.2-1.6,0.5-2.3c0.3-0.7,0.8-1.2,1.4-1.6c0.6-0.4,1.2-0.6,2-0.6c0.8,0,1.4,0.2,2,0.6C109.6,28.4,110.1,29,110.4,29.6z"/>
	<path class="st1" d="M116.6,25.7c-0.2,0.2-0.3,0.5-0.3,0.9v10.7c0,0.3,0.1,0.6,0.3,0.9c0.2,0.2,0.5,0.4,0.9,0.4
		c0.3,0,0.6-0.1,0.9-0.4c0.2-0.2,0.3-0.5,0.3-0.9V26.5c0-0.3-0.1-0.6-0.3-0.9C117.9,25.2,117,25.2,116.6,25.7z"/>
	<path class="st1" d="M117.5,21.3c-0.4,0-0.8,0.1-1,0.3c-0.3,0.2-0.4,0.5-0.4,0.9v0.3c0,0.4,0.1,0.7,0.4,0.9
		c0.2,0.2,0.6,0.3,1.1,0.3c0.4,0,0.8-0.1,1-0.3c0.3-0.2,0.4-0.5,0.4-0.9v-0.3c0-0.4-0.1-0.7-0.4-0.9
		C118.3,21.4,117.9,21.3,117.5,21.3z"/>
	<path class="st1" d="M133.1,28.5c-0.6-1-1.3-1.8-2.3-2.4c-1-0.6-2.1-0.9-3.3-0.9c-1.2,0-2.3,0.3-3.3,0.9c-1,0.6-1.8,1.4-2.4,2.4
		c-0.6,1-0.9,2.2-0.9,3.5c0,1.3,0.3,2.5,0.9,3.5c0.6,1,1.4,1.8,2.4,2.4c1,0.6,2.1,0.9,3.3,0.9c1.2,0,2.4-0.3,3.3-0.9
		s1.8-1.4,2.3-2.4c0.6-1,0.9-2.2,0.9-3.5S133.6,29.5,133.1,28.5z M127.4,36.4c-0.8,0-1.5-0.2-2.1-0.6c-0.6-0.4-1.1-0.9-1.5-1.6
		c-0.4-0.7-0.5-1.5-0.5-2.3c0-0.9,0.2-1.7,0.5-2.3c0.4-0.7,0.9-1.2,1.5-1.6c0.6-0.4,1.3-0.6,2.1-0.6c0.8,0,1.5,0.2,2.1,0.6
		c0.6,0.4,1.1,0.9,1.5,1.6c0.4,0.7,0.5,1.4,0.5,2.3c0,0.9-0.2,1.7-0.5,2.3c-0.4,0.7-0.8,1.2-1.5,1.6
		C128.9,36.2,128.2,36.4,127.4,36.4z"/>
</g>
</svg>
