<?xml version="1.0" encoding="utf-8"?>
<!-- Generator: Adobe Illustrator 24.1.0, SVG Export Plug-In . SVG Version: 6.00 Build 0)  -->
<svg version="1.1" id="Layer_1" xmlns="http://www.w3.org/2000/svg" xmlns:xlink="http://www.w3.org/1999/xlink" x="0px" y="0px"
	 viewBox="0 0 8622.6 6786.9" style="enable-background:new 0 0 8622.6 6786.9;" xml:space="preserve">
<path d="M4068.5,108.5c192-8.8,523.1-8.4,706.3,1.7c223.2,12.3,445.8,54.7,665.8,102.2c227.2,49.1,451,110.3,666.4,197.5
	c221.3,89.5,508.5,232.9,700.6,376.4c97.2,72.6,286.9,204.7,379.3,283.5c122.4,104.4,224.1,224.5,338.1,337.7
	c194.7,193.4,279.4,309.2,428,539.5c156.4,242.4,179.2,281,250.2,469.1c75.7,200.6,153.4,354,203.3,563
	c37.7,158.1,59.3,329.4,54.7,492.6c-3.2,113.7-0.1,256.3-12.5,369.5c-20,182.5-74.8,355.9-165.4,514.7
	c-66.2,116-142.8,227-224.6,332.6c-53.7,69.3-132.2,115.9-218.1,138.9c-105.7,28.3-213.7,48-320.2,73.3
	c-11.2,2.7-24.9,16.1-28.3,27.2c-35.8,118.5-60.8,240.1-124.2,349.5c-98.9,170.7-246.1,279.8-426.7,349.1
	c-133,51-270.5,83.6-411.2,106.3c-141.6,22.9-282.2,52.9-422.9,81.1c-41.3,8.2-82.2,19-122.1,32.3c-9.4,3.1-19.9,20.9-19.9,32
	c-0.3,89.5,50.3,159.3,95.3,230.2c45.9,72.3,100.3,139.5,143.8,213.1c90.4,153,41.2,279.2-128.7,332.4
	c-54.2,17-111.9,23.7-168.4,32.6c-60.5,9.5-103.2-17.6-138.3-66.7c-214.5-300-474.2-557.7-751.8-798.3
	c-58.6-50.8-119.3-99.4-182-144.9c-22.7-16.4-54-20.9-81.4-30.8c-152.4-54.9-271.9-151.8-359.9-286.7c-14-21.4-23.5-23.6-46.3-18.1
	c-114.4,27.5-228.5,57.5-344.3,77.3c-173.2,29.7-348.1,31-522.3,5c-130.3-19.5-261.1-37.2-390.3-62.6
	c-85.3-16.8-168.8-43.8-252-70.1c-92.4-29.2-186-56.8-274.4-95.6c-160.5-70.5-295.2-172.1-368.7-339.9
	c-28.5-64.9-27.4-131.9-28.4-199.4c-0.6-43.8-0.7-87.8,2.3-131.5c4.2-62.7-13-119.2-40.9-174.3c-19-37.6-32.7-77.8-50.9-115.7
	c-5-10.4-17.7-23.9-27.2-24.2c-130.9-4.6-261.9-4.7-392.7-10.9c-172.2-8.2-339.1-49.7-504.4-94.8c-98.2-26.8-194.8-61.3-289.2-99.6
	c-133-54.1-244.5-139.5-344.7-243.4c-112.9-117-208.6-214.1-260.1-393.7c-58.8-204.8-101.1-337.9-109.5-552.5
	c-7.9-204.2,19.1-308.3,46.9-453.5c18.2-95.1,57.3-185,87.6-276.9c37.8-114.8,95-235.1,157.6-336.8
	c183.9-299.3,429.2-542.5,706.3-752.1c140.9-106.6,300.2-189.1,452.5-280.3c341.7-204.8,723.1-303.8,1103-403.5
	c186.4-48.9,376.9-84.5,567.3-115.7C3585.9,144.3,3911.2,115.6,4068.5,108.5z"/>
</svg>
