<?xml version="1.0" encoding="utf-8"?>
<!-- Generator: Adobe Illustrator 25.1.0, SVG Export Plug-In . SVG Version: 6.00 Build 0)  -->
<svg version="1.1" id="Layer_1" focusable="false" xmlns="http://www.w3.org/2000/svg" xmlns:xlink="http://www.w3.org/1999/xlink"
	 x="0px" y="0px" viewBox="0 0 448 448" style="enable-background:new 0 0 448 448;" xml:space="preserve">
<path d="M137.7,301.1c-7.6-7.6-7.6-20,0-27.6L354.6,56.5l-1.2-1.2l-146.6,0.6c-10.8,0-19.5-8.8-19.5-19.5V20.1
	c0-10.8,8.8-19.5,19.5-19.5L428.5,0C439.2,0,448,8.8,448,19.5l-0.6,221.6c0,10.8-8.8,19.5-19.5,19.5h-16.3
	c-10.8,0-19.5-8.8-19.5-19.5l0.6-146.6l-1.2-1.2L174.6,310.3c-7.6,7.6-20,7.6-27.6,0L137.7,301.1L137.7,301.1z"/>
</svg>
