<svg width="335" height="40" viewBox="0 0 335 40" fill="none" xmlns="http://www.w3.org/2000/svg">
<path fill-rule="evenodd" clip-rule="evenodd" d="M165.849 13.6571L164.909 14.2194C164.64 14.3803 164.283 14.3167 164.106 14.0565C163.837 13.6626 163.578 13.3923 163.329 13.2457C162.977 13.0179 162.522 12.9044 161.966 12.9044C161.283 12.9044 160.715 13.1 160.265 13.4911C159.814 13.8751 159.588 14.3588 159.588 14.9417C159.588 15.7453 160.18 16.3923 161.364 16.8831L162.991 17.5549C164.316 18.0952 165.284 18.755 165.897 19.5337C166.51 20.3123 166.817 21.267 166.817 22.3977C166.817 23.9123 166.316 25.1639 165.316 26.1523C164.308 27.148 163.058 27.6454 161.564 27.6454C160.148 27.6454 158.979 27.2225 158.056 26.3763C157.267 25.6414 156.736 24.6467 156.462 23.3921C156.391 23.0687 156.61 22.7461 156.931 22.6748L158.217 22.3886C158.546 22.3155 158.878 22.5302 158.939 22.8646C159.056 23.5052 159.223 23.9684 159.44 24.2536C159.948 24.9645 160.687 25.3202 161.66 25.3202C162.427 25.3202 163.065 25.0605 163.572 24.5416C164.08 24.0226 164.333 23.3645 164.333 22.5682C164.333 22.2483 164.289 21.955 164.201 21.6883C164.113 21.4216 163.976 21.1764 163.789 20.9522C163.602 20.7282 163.361 20.5186 163.065 20.323C162.769 20.1273 162.417 19.9406 162.008 19.7629L160.434 19.1017C158.2 18.1487 157.084 16.7549 157.084 14.9203C157.084 13.683 157.552 12.6484 158.489 11.8163C159.426 10.9775 160.592 10.5578 161.987 10.5578C163.675 10.5578 165.03 11.3015 166.054 12.7893C166.252 13.0767 166.147 13.4788 165.849 13.6571Z" fill="#D83275"/>
<path fill-rule="evenodd" clip-rule="evenodd" d="M177.363 22.2158C177.363 21.2201 177.095 20.4095 176.56 19.7839C176.017 19.1508 175.334 18.8346 174.51 18.8346C173.636 18.8346 172.928 19.1401 172.386 19.7518C171.843 20.3637 171.572 21.1667 171.572 22.1625C171.572 23.1368 171.843 23.9401 172.386 24.5732C172.921 25.1918 173.626 25.5011 174.499 25.5011C175.324 25.5011 176.004 25.188 176.539 24.5626C177.088 23.9368 177.363 23.1546 177.363 22.2158ZM171.096 33.0001H169.945C169.606 33.0001 169.332 32.723 169.332 32.3809V17.574C169.332 17.2336 169.605 16.9575 169.942 16.9575H171.709V18.0882C172.646 17.1426 173.71 16.6696 174.901 16.6696C176.317 16.6696 177.483 17.196 178.399 18.2483C179.329 19.2936 179.794 20.6125 179.794 22.2055C179.794 23.7629 179.332 25.0604 178.409 26.0989C177.494 27.1298 176.338 27.6455 174.943 27.6455C173.738 27.6455 172.66 27.1586 171.709 26.1842V32.3809C171.709 32.723 171.435 33.0001 171.096 33.0001Z" fill="#D83275"/>
<path fill-rule="evenodd" clip-rule="evenodd" d="M184.686 17.591V26.7379C184.686 27.0741 184.417 27.3466 184.083 27.3466H182.912C182.579 27.3466 182.309 27.0741 182.309 26.7379V17.591C182.309 17.2411 182.59 16.9574 182.937 16.9574H184.059C184.405 16.9574 184.686 17.2411 184.686 17.591ZM181.949 12.6375C181.949 12.2177 182.101 11.8553 182.404 11.5496C182.707 11.244 183.07 11.0909 183.492 11.0909C183.922 11.0909 184.289 11.244 184.591 11.5496C184.894 11.8482 185.046 12.2146 185.046 12.6481C185.046 13.0818 184.894 13.452 184.591 13.7576C184.296 14.0633 183.933 14.2163 183.503 14.2163C183.073 14.2163 182.707 14.0633 182.404 13.7576C182.101 13.452 181.949 13.0785 181.949 12.6375Z" fill="#D83275"/>
<path fill-rule="evenodd" clip-rule="evenodd" d="M187.698 17.5744C187.698 17.2339 187.972 16.9575 188.31 16.9575H190.076V17.8855C190.513 17.4231 190.9 17.1069 191.238 16.9363C191.583 16.7587 191.993 16.6696 192.464 16.6696C192.906 16.6696 193.362 16.7722 193.832 16.977C194.163 17.1213 194.321 17.5084 194.16 17.8337L193.629 18.9046C193.482 19.2016 193.128 19.3186 192.828 19.1818C192.555 19.0573 192.286 18.9948 192.021 18.9948C190.724 18.9948 190.076 19.9832 190.076 21.9602V26.723C190.076 27.0675 189.799 27.3467 189.458 27.3467H188.316C187.975 27.3467 187.698 27.0675 187.698 26.723V17.5744Z" fill="#D83275"/>
<path fill-rule="evenodd" clip-rule="evenodd" d="M197.59 22.1202C197.59 23.4674 198.073 24.4758 199.041 25.1455C199.294 25.3207 199.597 25.4289 199.901 25.467C201.031 25.6084 201.919 25.3144 202.567 24.5842C203.11 23.9509 203.381 23.1477 203.381 22.1733C203.381 21.199 203.11 20.3957 202.567 19.7628C202.024 19.1441 201.32 18.8349 200.454 18.8349C199.636 18.8349 198.953 19.1479 198.403 19.7734C197.861 20.4065 197.59 21.1883 197.59 22.1202ZM203.233 16.9576H205.018C205.351 16.9576 205.621 17.2302 205.621 17.5664V26.7409C205.621 27.0756 205.352 27.3467 205.021 27.3467H203.233V26.2588C202.254 27.183 201.2 27.6454 200.073 27.6454C198.65 27.6454 197.473 27.1265 196.543 26.0882C195.62 25.0284 195.159 23.7058 195.159 22.1203C195.159 20.474 195.675 19.1178 196.706 18.0513C197.314 17.4227 198.109 16.9797 198.959 16.7902C200.587 16.427 202.011 16.8842 203.233 18.1628V16.9576Z" fill="#D83275"/>
<path fill-rule="evenodd" clip-rule="evenodd" d="M211 9.95034V26.729C211 27.0702 210.726 27.3467 210.388 27.3467H209.234C208.896 27.3467 208.622 27.0702 208.622 26.729V9.95034C208.622 9.60827 208.897 9.33087 209.236 9.33087H210.386C210.725 9.33087 211 9.60827 211 9.95034Z" fill="#D83275"/>
<path fill-rule="evenodd" clip-rule="evenodd" d="M143.846 7.01243C140.73 7.19042 138.65 9.20305 138.22 9.67177C137.892 9.31308 136.595 8.05002 134.607 7.39739C134.652 7.43437 134.697 7.47172 134.742 7.50899C134.804 7.55944 134.864 7.61087 134.923 7.66603C135.162 7.87749 135.38 8.1144 135.589 8.35842C135.689 8.48387 135.792 8.6076 135.883 8.73971C135.93 8.80618 135.978 8.86763 136.023 8.93882C136.068 9.00858 136.114 9.07797 136.158 9.14885C136.506 9.71908 136.757 10.3533 136.896 11.0123C137.035 11.6712 137.06 12.3546 136.974 13.0236C136.887 13.6922 136.69 14.3482 136.382 14.9504C136.076 15.553 135.662 16.1016 135.167 16.5573L134.978 16.724L134.781 16.8803C134.715 16.9323 134.641 16.9824 134.571 17.0326C134.499 17.0806 134.425 17.1276 134.351 17.1734C134.052 17.3517 133.732 17.4951 133.401 17.5985C132.738 17.8087 132.03 17.8452 131.361 17.7262C130.691 17.6038 130.057 17.3265 129.526 16.9249C129.261 16.7256 129.019 16.4974 128.807 16.2489C128.701 16.125 128.603 15.9952 128.511 15.862C128.464 15.7962 128.422 15.7205 128.378 15.6501C128.337 15.5776 128.29 15.5088 128.256 15.4319C128.22 15.3565 128.184 15.2813 128.148 15.206C128.13 15.169 128.115 15.1304 128.101 15.0912L128.058 14.9744L128.016 14.8574L127.996 14.7992L127.98 14.7393C127.96 14.6595 127.939 14.5801 127.919 14.5005L127.904 14.4407L127.894 14.3803L127.875 14.2595L127.856 14.1386L127.847 14.0782L127.842 14.0176C127.837 13.9367 127.832 13.8561 127.826 13.7754L127.823 13.7153L127.824 13.6546L127.827 13.5341L127.831 13.4138L127.833 13.3542L127.839 13.2943C127.849 13.215 127.858 13.1361 127.867 13.0571L127.875 12.998L127.886 12.9394L127.911 12.8234L127.935 12.7076C127.943 12.6687 127.952 12.6307 127.965 12.5931C128.011 12.4426 128.053 12.2916 128.118 12.149C128.148 12.077 128.175 12.0039 128.21 11.9346C128.247 11.8661 128.283 11.7976 128.319 11.7293C128.353 11.6597 128.396 11.5955 128.438 11.5312C128.481 11.4672 128.522 11.4028 128.566 11.3401C128.614 11.2804 128.662 11.2211 128.71 11.1617L128.782 11.0734C128.806 11.0449 128.834 11.0186 128.86 10.9916C128.914 10.9377 128.967 10.8841 129.02 10.8308C129.072 10.7772 129.134 10.7331 129.19 10.6845C129.249 10.6377 129.302 10.5886 129.366 10.5451C129.43 10.5023 129.495 10.4594 129.558 10.4168C129.823 10.2591 130.107 10.1382 130.4 10.0689C130.694 10.0027 130.992 9.98248 131.283 10.004C131.574 10.0311 131.854 10.1028 132.115 10.2065C132.376 10.3155 132.613 10.4618 132.827 10.6301C132.878 10.6743 132.928 10.72 132.978 10.7651L133.052 10.8335L133.119 10.9075C133.164 10.9571 133.208 11.0057 133.251 11.0559C133.29 11.1086 133.328 11.1612 133.367 11.2134L133.424 11.2923L133.476 11.3786L133.527 11.4651C133.544 11.4937 133.56 11.5228 133.573 11.5533C133.601 11.6137 133.629 11.6733 133.656 11.7332C133.678 11.7952 133.7 11.8566 133.722 11.9184C133.799 12.1665 133.838 12.4197 133.842 12.6676C133.842 12.9161 133.808 13.1572 133.745 13.3852C133.681 13.6131 133.582 13.8243 133.466 14.0168C133.346 14.2086 133.201 14.3758 133.044 14.5211C133.004 14.5568 132.961 14.5888 132.921 14.6219C132.88 14.6547 132.839 14.6873 132.792 14.7159C132.746 14.7446 132.703 14.7764 132.655 14.8003C132.608 14.8244 132.56 14.8483 132.513 14.8719C132.32 14.9562 132.118 15.0048 131.922 15.02C131.725 15.0377 131.533 15.0158 131.355 14.9709C131.266 14.951 131.183 14.9168 131.1 14.8863C131.021 14.8475 130.941 14.8134 130.871 14.7658C130.725 14.6797 130.602 14.5702 130.495 14.4586C130.446 14.399 130.393 14.3443 130.353 14.2818C130.332 14.2516 130.312 14.2214 130.292 14.1917C130.272 14.1609 130.255 14.1276 130.237 14.0961L130.211 14.0486L130.19 13.9995C130.176 13.9669 130.162 13.9351 130.15 13.9026C130.129 13.8367 130.106 13.7736 130.094 13.709C130.064 13.5821 130.059 13.4576 130.059 13.343C130.067 13.1112 130.126 12.9143 130.201 12.7596C130.237 12.6813 130.282 12.6154 130.322 12.5566C130.367 12.5007 130.407 12.4502 130.45 12.4121C130.471 12.3923 130.49 12.3738 130.509 12.3581C130.53 12.3432 130.549 12.3297 130.566 12.317C130.584 12.3047 130.6 12.2939 130.615 12.2845C130.631 12.2763 130.646 12.2692 130.66 12.2634C130.713 12.2403 130.745 12.2367 130.756 12.2506C130.78 12.2819 130.706 12.3695 130.615 12.5416C130.591 12.5831 130.572 12.6346 130.547 12.6876C130.528 12.7433 130.507 12.8024 130.492 12.8694C130.462 13.0014 130.447 13.1575 130.47 13.325C130.485 13.4083 130.501 13.4949 130.537 13.5793C130.551 13.6225 130.576 13.6628 130.594 13.7053C130.607 13.7258 130.619 13.746 130.631 13.7663L130.65 13.797L130.672 13.8259C130.687 13.8453 130.7 13.8652 130.717 13.8844C130.734 13.9034 130.752 13.9228 130.77 13.9422C130.802 13.9832 130.846 14.015 130.884 14.052C130.968 14.1187 131.058 14.1828 131.161 14.2267C131.21 14.2532 131.266 14.2673 131.319 14.2875C131.375 14.2999 131.43 14.3175 131.488 14.3225C131.603 14.3383 131.723 14.3395 131.842 14.3154C131.96 14.2928 132.077 14.2516 132.187 14.1907C132.213 14.1738 132.24 14.1568 132.267 14.1397C132.294 14.1231 132.318 14.1001 132.344 14.0812C132.369 14.0636 132.394 14.0383 132.419 14.0136C132.444 13.989 132.471 13.9664 132.494 13.9404C132.588 13.835 132.673 13.7184 132.74 13.5882C132.804 13.4561 132.858 13.3156 132.887 13.1656C132.915 13.0156 132.925 12.8602 132.914 12.7037C132.898 12.5476 132.861 12.3929 132.804 12.2456L132.757 12.1363C132.737 12.1016 132.718 12.0667 132.698 12.0319C132.689 12.0139 132.679 11.9971 132.667 11.9811L132.632 11.932L132.598 11.8821L132.557 11.8335C132.529 11.8007 132.501 11.7679 132.474 11.7348C132.443 11.7048 132.412 11.6752 132.381 11.6455L132.336 11.6L132.285 11.5607C132.252 11.5339 132.218 11.5073 132.184 11.4806C132.042 11.3853 131.889 11.3035 131.725 11.2465C131.56 11.1948 131.388 11.162 131.213 11.1556C131.038 11.1551 130.863 11.1782 130.693 11.2263C130.524 11.2778 130.364 11.3592 130.213 11.4595C130.177 11.4871 130.141 11.5146 130.104 11.5415C130.067 11.5691 130.032 11.6071 129.995 11.6389C129.96 11.6733 129.921 11.7027 129.889 11.7405L129.79 11.8516C129.774 11.8703 129.756 11.8876 129.741 11.9074L129.698 11.9682L129.61 12.0888L129.534 12.2188C129.508 12.2619 129.481 12.3047 129.462 12.3517C129.098 13.0739 129.106 14.0163 129.526 14.7375C129.547 14.785 129.581 14.8257 129.609 14.8696C129.639 14.9129 129.663 14.9568 129.697 15.0003C129.764 15.0884 129.835 15.1737 129.91 15.2541C130.06 15.4151 130.227 15.5593 130.406 15.6829C130.765 15.9325 131.183 16.0922 131.613 16.1543C132.044 16.2121 132.488 16.1724 132.897 16.0254C133.101 15.9527 133.298 15.856 133.483 15.7373L133.618 15.6435C133.662 15.6086 133.705 15.5782 133.75 15.5408L133.883 15.4268L134.011 15.3066C134.344 14.9783 134.618 14.5901 134.818 14.1647C135.02 13.7395 135.143 13.2767 135.191 12.809C135.237 12.3412 135.208 11.8676 135.1 11.4183C134.992 10.9687 134.81 10.5432 134.567 10.1632L134.472 10.0234C134.442 9.97672 134.402 9.93001 134.368 9.883C134.299 9.78734 134.221 9.70014 134.147 9.61032C133.991 9.43778 133.832 9.26944 133.657 9.12265C133.615 9.08373 133.57 9.04803 133.525 9.01315C133.48 8.97819 133.437 8.94114 133.391 8.90783C133.299 8.84233 133.209 8.77414 133.113 8.71553C133.02 8.65221 132.921 8.59974 132.825 8.54308C132.776 8.5165 132.726 8.49233 132.677 8.46658L132.603 8.42878L132.527 8.39487C132.126 8.20886 131.704 8.08917 131.282 8.02405C131.071 7.99538 130.86 7.97674 130.651 7.9757C130.441 7.97674 130.234 7.9846 130.03 8.01462C129.214 8.11911 128.47 8.44846 127.863 8.90618C127.786 8.95948 127.711 9.02602 127.635 9.0874C127.598 9.11899 127.559 9.14885 127.522 9.18096C127.486 9.21375 127.451 9.24638 127.415 9.27917C127.38 9.31143 127.344 9.34377 127.308 9.3761C127.273 9.40836 127.241 9.44377 127.207 9.47723C127.141 9.54572 127.071 9.60979 127.01 9.68128C126.949 9.75216 126.883 9.81885 126.825 9.89056C126.767 9.96249 126.709 10.0337 126.652 10.1043C126.598 10.1776 126.544 10.2504 126.491 10.3228C126.438 10.3948 126.392 10.471 126.342 10.5435C126.151 10.8397 125.983 11.1494 125.839 11.4681C125.696 11.7881 125.581 12.1179 125.488 12.4517C125.467 12.5358 125.44 12.6182 125.423 12.7031C125.405 12.7874 125.386 12.872 125.367 12.9558C125.353 13.0409 125.338 13.1254 125.323 13.2102C125.307 13.2945 125.3 13.3802 125.288 13.4647C125.248 13.8046 125.226 14.1447 125.235 14.4819C125.259 15.8324 125.679 17.1145 126.361 18.1496C126.4 18.2158 126.45 18.2801 126.494 18.345C126.54 18.4098 126.585 18.4747 126.631 18.539C126.725 18.6643 126.823 18.7867 126.918 18.9094C127.021 19.0254 127.118 19.1453 127.222 19.2576C127.274 19.313 127.327 19.3684 127.38 19.4233C127.431 19.4787 127.483 19.5342 127.539 19.5846C127.97 20.0064 128.433 20.3696 128.912 20.673C129.87 21.2815 130.887 21.6463 131.846 21.8204C132.326 21.9081 132.792 21.9497 133.236 21.9583C133.679 21.963 134.099 21.9316 134.491 21.8826C135.274 21.7741 135.942 21.5853 136.479 21.3918C137.018 21.1985 137.424 21.0021 137.718 20.8886C138.003 20.7627 138.177 20.72 138.22 20.7767C138.263 20.8329 138.172 20.9866 137.951 21.2313C137.721 21.4635 137.358 21.7873 136.824 22.1155C136.292 22.4439 135.588 22.7751 134.717 23.0138C134.281 23.1275 133.804 23.2205 133.291 23.2699C132.778 23.3153 132.23 23.3203 131.656 23.2673C130.511 23.1624 129.261 22.8181 128.059 22.1516C126.941 21.5331 125.868 20.6373 125 19.4864C125.778 21.6735 126.975 23.2358 127.818 24.3138C130.275 27.455 133.045 28.9986 134.315 29.6895C135.837 30.5172 137.727 31.3511 138.22 31.3511C138.747 31.3511 140.604 30.5172 142.127 29.6895C143.396 28.9986 146.166 27.455 148.623 24.3138C149.702 22.934 151.361 20.762 151.978 17.5011C152.24 16.1142 152.541 14.4092 151.836 12.4087C150.909 9.78105 148.905 8.48042 148.438 8.19292C147.799 7.79867 146.3 7.00007 144.281 7C144.139 7 143.994 7.00404 143.846 7.01243Z" fill="#D83275"/>
</svg>
