<?xml version="1.0" encoding="utf-8"?>
<!-- Generator: Adobe Illustrator 24.3.0, SVG Export Plug-In . SVG Version: 6.00 Build 0)  -->
<svg version="1.1" id="Layer_1" xmlns="http://www.w3.org/2000/svg" xmlns:xlink="http://www.w3.org/1999/xlink" x="0px" y="0px"
	 viewBox="0 0 1008 648" style="enable-background:new 0 0 1008 648;" xml:space="preserve">
<style type="text/css">
	.st0{fill:none;stroke:#FFFFFF;stroke-width:0.25;stroke-miterlimit:10;}
	.st1{fill:none;stroke:#FFFFFF;stroke-width:0.15;stroke-miterlimit:10;}
	.st2{fill:#FFFFFF;stroke:#FFFFFF;stroke-miterlimit:10;}
</style>
<polyline class="st0" points="298.5,588.7 300.5,501.6 381.4,417.7 "/>
<polyline class="st0" points="517.8,414.1 439.7,509.4 300.5,501.6 "/>
<polyline class="st0" points="370.4,650.6 408.9,598.8 298.5,588.7 204.1,691.1 "/>
<line class="st0" x1="408.9" y1="598.8" x2="513.6" y2="571.9"/>
<line class="st1" x1="343.7" y1="656.8" x2="300.5" y2="501.6"/>
<path class="st0" d="M517.8,414.1"/>
<polyline class="st1" points="517.8,414.1 511.2,617.5 408.9,598.8 439.7,509.4 553.9,607.5 614.3,395.2 "/>
<line class="st0" x1="439.7" y1="509.4" x2="381" y2="418"/>
<polyline class="st0" points="517.8,414.1 701,572.9 752.9,439.2 685.1,327.9 "/>
<polyline class="st1" points="966.6,510.5 868.4,351.3 1057.4,293.4 "/>
<line class="st0" x1="1101" y1="475.5" x2="868.4" y2="351.3"/>
<path class="st0" d="M883.3,237.5"/>
<path class="st0" d="M752.9,439.2"/>
<polyline class="st1" points="749.1,370.3 760.8,558.9 868.4,351.3 "/>
<polyline class="st0" points="868.4,351.3 754.1,296 1003.8,65.2 "/>
<polyline class="st0" points="1017.8,498.5 1047.3,257.5 856.6,66 "/>
<polyline class="st0" points="984.5,-17 879.2,176.6 1042,294.8 "/>
<line class="st0" x1="754.1" y1="296" x2="689.6" y2="179.5"/>
<line class="st0" x1="381.4" y1="417.7" x2="687.4" y2="406.7"/>
<polyline class="st0" points="869.3,352.8 582.9,304.7 517.8,414.1 574,344 614,395 "/>
<polyline class="st0" points="582.9,304.7 743.8,462.7 687.4,407 618.9,501.1 "/>
<polyline class="st1" points="1027.3,165.4 880.7,176.8 749.1,370.3 571,347 "/>
<polyline class="st1" points="408.9,598.8 580,517.5 701,572.9 687.6,406.7 "/>
<polyline class="st0" points="880.7,176.8 794.7,143.9 641.4,161.6 "/>
<polyline class="st0" points="42.7,727.6 298.5,588.7 237.9,551.8 "/>
<path class="st0" d="M358,320l-92.8-1.6"/>
<path class="st0" d="M239,449l119-129l160.2,94.8"/>
<line class="st0" x1="455" y1="415" x2="358" y2="320"/>
<polyline class="st0" points="419.9,209.6 582.9,304.7 602,245 "/>
<path class="st0" d="M754.4,295.7L695.1,278L754.4,295.7z"/>
<path class="st0" d="M792.2,190.6c-2.7,5.7-37.8,105.1-37.8,105.1"/>
<path class="st0" d="M689.3,179.5L667,318.2L689.3,179.5z"/>
<line class="st0" x1="876.7" y1="177.8" x2="689.3" y2="179.5"/>
<path class="st0" d="M877.1,287.1l-50.3,44.5L877.1,287.1z"/>
<path class="st0" d="M900.7,341.5l-23.6-54.4L900.7,341.5z"/>
<path class="st0" d="M917.1,429l0.8,46.5L917.1,429z"/>
<path class="st0" d="M1011.5,500l-93.9-71L1011.5,500z"/>
<polyline class="st0" points="603.3,434 636.9,476.9 705.2,424.1 "/>
<polyline class="st0" points="980.2,87.2 925.5,173.3 970.1,242.6 "/>
<polyline class="st0" points="905.1,410.6 955.2,324.7 1028.8,400.8 "/>
<polyline class="st0" points="757.3,497.4 824.6,435.6 849.6,507.3 "/>
<line class="st0" x1="502" y1="258" x2="515.1" y2="192.8"/>
<polyline class="st0" points="204.1,689.7 89.5,604 -1.7,738 "/>
<polyline class="st0" points="42.7,727.6 195.6,504.8 301.3,502.5 -1.7,738 "/>
<polyline class="st1" points="1075.6,370.9 975.7,408.6 917.9,475.5 814.4,343.5 750.3,410.5 653.8,408.5 618.9,501.1 517.2,472.1 
	477,540.8 385,506.8 326,591.2 "/>
<polyline class="st1" points="60.5,645.4 143.2,703.9 203.5,578.5 357.2,506.6 455.5,415 517.2,472.1 633.9,314.1 857.6,442.4 
	928,212 725.3,179.7 932.7,78.8 "/>
<polygon class="st0" points="298.5,588.7 203.5,578.5 164.6,660.3 "/>
<line class="st0" x1="301" y1="502" x2="375" y2="472"/>
<line class="st0" x1="582.2" y1="304.8" x2="472" y2="328"/>
<g>
	<polygon class="st2" points="645,157 638.7,156.4 635,161.8 637.7,167.8 644,168.4 647.7,163 	"/>
</g>
<g>
	<polygon class="st2" points="970.8,505.4 964.5,504.8 960.8,510.2 963.5,516.2 969.8,516.8 973.5,511.4 	"/>
</g>
<g>
	<polygon class="st2" points="521.5,408.7 515.1,408.2 511.5,413.6 514.2,419.5 520.5,420.1 524.2,414.7 	"/>
</g>
<g>
	<polygon class="st2" points="423.6,204.2 417.2,203.6 413.6,209 416.3,214.9 422.6,215.5 426.3,210.1 	"/>
</g>
<g>
	<polygon class="st2" points="624.3,494.6 617.9,494 614.3,499.4 617,505.4 623.3,506 627,500.6 	"/>
</g>
<g>
	<polygon class="st2" points="698.8,272.6 692.4,272 688.8,277.4 691.5,283.4 697.8,284 701.5,278.6 	"/>
</g>
<g>
	<polygon class="st2" points="980.8,402.8 974.5,402.2 970.8,407.6 973.5,413.6 979.8,414.1 983.5,408.7 	"/>
</g>
<g>
	<polygon class="st2" points="302.1,583.3 295.8,582.7 292.1,588.1 294.8,594.1 301.2,594.7 304.8,589.3 	"/>
</g>
<g>
	<polygon class="st2" points="691,401.3 684.7,400.7 681,406.1 683.7,412.1 690,412.6 693.7,407.2 	"/>
</g>
<g>
	<polygon class="st2" points="921.5,425.5 915.2,424.9 911.5,430.3 914.2,436.3 920.5,436.9 924.2,431.5 	"/>
</g>
<g>
	<polygon class="st2" points="443.3,504 437,503.4 433.3,508.8 436,514.8 442.3,515.4 446,510 	"/>
</g>
<g>
	<polygon class="st2" points="196.9,499.9 190.6,499.3 186.9,504.7 189.6,510.7 196,511.3 199.6,505.9 	"/>
</g>
<g>
	<polygon class="st2" points="881,281.5 874.6,281 871,286.4 873.6,292.3 880,292.9 883.6,287.5 	"/>
</g>
<g>
	<polygon class="st2" points="586.5,299 580.1,298.4 576.5,303.8 579.2,309.8 585.5,310.4 589.2,305 	"/>
</g>
<g>
	<polygon class="st2" points="731.9,172.4 725.5,171.8 721.9,177.2 724.6,183.2 730.9,183.7 734.6,178.3 	"/>
</g>
<g>
	<polygon class="st2" points="873,345.9 866.7,345.3 863,350.7 865.7,356.7 872,357.3 875.7,351.9 	"/>
</g>
<g>
	<polygon class="st2" points="980.8,87.8 974.5,87.2 970.8,92.6 973.5,98.6 979.8,99.2 983.5,93.8 	"/>
</g>
<g>
	<polygon class="st2" points="853.2,504 846.9,503.4 843.2,508.8 845.9,514.8 852.2,515.4 855.9,510 	"/>
</g>
<g>
	<polygon class="st2" points="884.4,173.4 878,172.8 874.4,178.2 877.1,184.1 883.4,184.7 887.1,179.3 	"/>
</g>
<g>
	<polygon class="st2" points="752.8,364.9 746.4,364.3 742.8,369.7 745.4,375.7 751.8,376.3 755.4,370.9 	"/>
</g>
<g>
	<polygon class="st2" points="827,430.2 820.7,429.6 817,435 819.7,441 826,441.6 829.7,436.2 	"/>
</g>
<g>
	<polygon class="st2" points="519.3,188.8 512.9,188.2 509.3,193.6 511.9,199.6 518.3,200.1 521.9,194.7 	"/>
</g>
<g>
	<polygon class="st2" points="376.6,644.5 370.3,643.9 366.6,649.3 369.3,655.3 375.7,655.9 379.3,650.5 	"/>
</g>
<g>
	<polygon class="st2" points="266.8,313.1 260.5,312.5 256.8,317.9 259.5,323.9 265.9,324.5 269.5,319.1 	"/>
</g>
<g>
	<polygon class="st2" points="605.7,239.4 599.3,238.8 595.7,244.2 598.4,250.2 604.7,250.7 608.4,245.4 	"/>
</g>
<g>
	<polygon class="st2" points="93.4,598.6 87.1,598.1 83.5,603.5 86.1,609.4 92.5,610 96.1,604.6 	"/>
</g>
<g>
	<polygon class="st2" points="304.9,495.7 298.6,495.1 294.9,500.5 297.6,506.5 304,507 307.6,501.6 	"/>
</g>
<g>
	<polygon class="st2" points="348.1,650.5 341.7,649.9 338.1,655.3 340.8,661.3 347.1,661.8 350.8,656.5 	"/>
</g>
<g>
	<polygon class="st2" points="704.2,566.6 697.8,566 694.2,571.4 696.9,577.4 703.2,578 706.9,572.6 	"/>
</g>
<g>
	<polygon class="st2" points="617.9,389.8 611.6,389.3 607.9,394.7 610.6,400.6 617,401.2 620.6,395.8 	"/>
</g>
<g>
	<polygon class="st2" points="129.5,654.1 127.5,653.9 126.3,655.7 127.2,657.6 129.2,657.8 130.4,656.1 	"/>
</g>
<g>
	<polygon class="st2" points="473.1,326.1 471,325.9 469.8,327.7 470.7,329.6 472.7,329.8 473.9,328.1 	"/>
</g>
<g>
	<polygon class="st2" points="287,628.5 284.9,628.3 283.8,630.1 284.6,632 286.7,632.2 287.8,630.4 	"/>
</g>
<g>
	<polygon class="st2" points="743.9,312.5 741.9,312.4 740.7,314.1 741.6,316 743.6,316.2 744.8,314.5 	"/>
</g>
<g>
	<polygon class="st2" points="762.2,557.1 760.2,557 759,558.7 759.9,560.6 761.9,560.8 763.1,559.1 	"/>
</g>
<g>
	<polygon class="st2" points="478.3,186.4 476.3,186.3 475.1,188 476,189.9 478,190.1 479.2,188.4 	"/>
</g>
<g>
	<polygon class="st2" points="646.8,279.2 644.8,279 643.6,280.8 644.5,282.7 646.5,282.9 647.7,281.1 	"/>
</g>
<g>
	<polygon class="st2" points="581.4,430 579.3,429.8 578.1,431.5 579,433.5 581,433.7 582.2,431.9 	"/>
</g>
<g>
	<polygon class="st2" points="456.4,413.4 454.4,413.2 453.2,414.9 454.1,416.9 456.1,417.1 457.3,415.3 	"/>
</g>
<g>
	<polygon class="st2" points="684.4,377.6 682.4,377.4 681.2,379.2 682.1,381.1 684.1,381.3 685.3,379.6 	"/>
</g>
<g>
	<polygon class="st2" points="382.8,416.6 380.8,416.4 379.6,418.2 380.5,420.1 382.5,420.3 383.7,418.6 	"/>
</g>
<g>
	<polygon class="st2" points="382.5,564.3 380.5,564.1 379.3,565.8 380.2,567.7 382.2,567.9 383.4,566.2 	"/>
</g>
<g>
	<polygon class="st2" points="230.7,596.3 228.6,596.1 227.4,597.9 228.3,599.8 230.3,600 231.5,598.2 	"/>
</g>
<g>
	<polygon class="st2" points="816.5,341.8 814.4,341.6 813.3,343.4 814.1,345.3 816.2,345.5 817.4,343.7 	"/>
</g>
<g>
	<polygon class="st2" points="837.7,285.4 835.6,285.2 834.4,286.9 835.3,288.8 837.3,289 838.5,287.3 	"/>
</g>
<g>
	<polygon class="st2" points="916.2,160.5 914.2,160.3 913,162.1 913.9,164 915.9,164.2 917.1,162.4 	"/>
</g>
<g>
	<polygon class="st2" points="478.3,538.5 476.3,538.3 475.1,540 476,542 478,542.1 479.2,540.4 	"/>
</g>
<g>
	<polygon class="st2" points="881.9,129.6 879.8,129.4 878.7,131.2 879.5,133.1 881.6,133.3 882.8,131.5 	"/>
</g>
<g>
	<polygon class="st2" points="449.1,478.4 447,478.2 445.9,479.9 446.7,481.8 448.8,482 450,480.3 	"/>
</g>
<g>
	<polygon class="st2" points="573.6,343.7 571.5,343.5 570.3,345.3 571.2,347.2 573.2,347.4 574.4,345.7 	"/>
</g>
<g>
	<polygon class="st2" points="594.8,194.7 592.8,194.5 591.6,196.2 592.4,198.2 594.5,198.3 595.7,196.6 	"/>
</g>
<g>
	<polygon class="st2" points="535.5,493.3 533.5,493.2 532.3,494.9 533.2,496.8 535.2,497 536.4,495.3 	"/>
</g>
<g>
	<polygon class="st2" points="901.9,427.2 899.8,427 898.7,428.8 899.5,430.7 901.6,430.9 902.8,429.2 	"/>
</g>
<g>
	<polygon class="st2" points="928.7,314.5 926.7,314.3 925.5,316 926.4,318 928.4,318.1 929.6,316.4 	"/>
</g>
<g>
	<polygon class="st2" points="239.2,448.7 237.2,448.5 236,450.2 236.9,452.1 238.9,452.3 240.1,450.6 	"/>
</g>
<g>
	<polygon class="st2" points="774.5,231.1 772.4,230.9 771.2,232.6 772.1,234.6 774.2,234.8 775.3,233 	"/>
</g>
<g>
	<polygon class="st2" points="686.5,326.2 684.4,326 683.3,327.8 684.1,329.7 686.2,329.9 687.4,328.1 	"/>
</g>
<g>
	<polygon class="st2" points="374.2,469.7 372.1,469.5 370.9,471.3 371.8,473.2 373.8,473.4 375,471.6 	"/>
</g>
<g>
	<polygon class="st2" points="804.6,418.4 802.6,418.2 801.4,419.9 802.2,421.8 804.3,422 805.5,420.3 	"/>
</g>
<g>
	<polygon class="st2" points="638.6,475.2 636.5,475 635.4,476.7 636.2,478.7 638.3,478.9 639.5,477.1 	"/>
</g>
<g>
	<polygon class="st2" points="609.1,564.3 607.1,564.1 605.9,565.8 606.8,567.7 608.8,567.9 610,566.2 	"/>
</g>
<g>
	<polygon class="st2" points="604.5,431.9 602.4,431.7 601.2,433.5 602.1,435.4 604.1,435.6 605.3,433.9 	"/>
</g>
</svg>
