<svg role="presentation" aria-hidden="true" width="584" height="208"><title>Max chart. High 225.53, Low 0.10</title><defs><linearGradient id="fin_ahgrad" x1="0%" y1="50%" x2="100%" y2="50%"><stop offset="99.9%" class="fin_ticker_line"></stop><stop offset="100%" class="fin_ticker_line"></stop></linearGradient><linearGradient id="fin_areaGrad" x1="0" y1="0" x2="0" y2="1"><stop offset="0%" class="fin_grad_top"></stop><stop offset="100%" class="fin_grad_bottom"></stop></linearGradient></defs><g transform="translate(8, 0)" class="fin_mc" role="presentation" aria-hidden="true"><rect width="592" height="208" x="-8" style="visibility: hidden;"></rect><g class="x fin_ax" transform="translate(0,188)"><g class="tick" transform="translate(0,0)" style="opacity: 1; visibility: hidden;"><line y2="6" x2="0"></line><text dy=".71em" y="9" x="0" style="text-anchor: middle;">1986</text></g><g class="tick" transform="translate(124.23762077294685,0)" style="opacity: 1;"><line y2="6" x2="0"></line><text dy=".71em" y="9" x="0" style="text-anchor: middle;">1994</text></g><g class="tick" transform="translate(248.4752415458937,0)" style="opacity: 1;"><line y2="6" x2="0"></line><text dy=".71em" y="9" x="0" style="text-anchor: middle;">2002</text></g><g class="tick" transform="translate(372.71286231884056,0)" style="opacity: 1;"><line y2="6" x2="0"></line><text dy=".71em" y="9" x="0" style="text-anchor: middle;">2011</text></g><g class="tick" transform="translate(496.9504830917874,0)" style="opacity: 1;"><line y2="6" x2="0"></line><text dy=".71em" y="9" x="0" style="text-anchor: middle;">2019</text></g><path class="domain" d="M0,6V0H514.34375V6"></path><text></text></g><g class="fin_tck" opacity="1"><path class="area" d="M0,149.46196713333333L1.2423762077294684,149.45538666666667L2.484752415458937,149.45192116666666L3.7271286231884058,149.457458L4.969504830917874,149.46058093333332L6.211881038647343,149.46058093333332L7.4542572463768115,149.46092349999998L8.69663345410628,149.44638433333336L9.939009661835748,149.43116799999999L11.181385869565217,149.43327916666667L12.423762077294686,149.39886316666667L13.666138285024154,149.39384416666664L14.908514492753623,149.36619983333335L16.150890700483092,149.35616183333335L17.39326690821256,149.340587L18.63564311594203,149.3589103333333L19.878019323671495,149.369984L21.120395531400966,149.33576716666667L22.362771739130434,149.31672683333332L23.605147946859905,149.36237583333332L24.847524154589372,149.376198L26.089900362318843,149.34994783333332L27.332276570048307,149.34580516666668L28.574652777777775,149.33576716666667L29.817028985507246,149.343694L31.059405193236714,149.3492308333333L32.301781400966185,149.33955133333333L33.54415760869565,149.3146555L34.78653381642512,149.33540866666667L36.02891002415459,149.36169866666665L37.27128623188406,149.35544483333334L38.513662439613526,149.36444716666668L39.75603864734299,149.36930683333335L40.99841485507246,149.35269633333334L42.24079106280193,149.3350501666667L43.4831672705314,149.33540866666667L44.72554347826087,149.36201733333334L45.96791968599034,149.34544666666667L47.21029589371981,149.33266016666667L48.452672101449274,149.3533735L49.695048309178745,149.34855366666667L50.93742451690821,149.33748L52.17980072463769,149.31051283333335L53.42217693236715,149.27386616666666L54.664553140096615,149.259327L55.906929347826086,149.259327L57.14930555555555,149.24411066666667L58.39168176328503,149.226823L59.63405797101449,149.19364183333334L60.87643417874396,149.17910266666667L62.11881038647343,149.09612983333335L63.3611865942029,149.07951933333334L64.60356280193237,149.13209933333334L65.84593900966185,149.15974366666666L67.0883152173913,149.15145833333332L68.33069142512078,149.14731566666666L69.57306763285024,149.1002725L70.8154438405797,149.083662L72.05782004830918,148.9571115L73.30019625603865,148.92600166666668L74.54257246376812,148.91285666666667L75.78494867149757,148.95229166666664L77.02732487922705,148.8928205L78.26970108695653,148.9346455L79.51207729468598,148.89003216666666L80.75445350241546,148.79256L81.99682971014492,148.76141033333334L83.2392059178744,148.7209795L84.48158212560386,148.69297666666665L85.72395833333333,148.57678283333334L86.9663345410628,148.50209533333333L88.20871074879227,148.47512816666668L89.45108695652173,148.51659466666666L90.69346316425121,148.58506816666667L91.93583937198068,148.49588133333333L93.17821557971014,148.62864583333334L94.42059178743962,148.594429L95.66296799516908,148.57264016666667L96.90534420289855,148.49795266666666L98.14772041062801,148.39526233333333L99.39009661835749,148.34077033333332L100.63247282608697,148.43724666666665L101.87484903381642,148.42326516666665L103.1172252415459,148.4621425L104.35960144927537,148.34857766666667L105.60197765700482,148.43569316666665L106.8443538647343,148.34702416666664L108.08673007246377,148.40458333333333L109.32910628019323,148.57885416666664L110.57148248792271,148.56483283333333L111.81385869565217,148.47305683333335L113.05623490338165,148.50261316666666L114.2986111111111,148.50416666666666L115.54098731884058,148.49639916666666L116.78336352657006,148.44035366666665L118.0257397342995,148.47305683333335L119.26811594202898,148.445054L120.51049214975846,148.34857766666667L121.75286835748793,148.161839L122.99524456521739,148.21473766666668L124.23762077294685,148.21784466666665L125.47999698067633,148.0529346666667L126.7223731884058,148.10272633333332L127.96474939613526,147.9315625L129.20712560386474,147.93466949999998L130.44950181159422,147.97824716666665L131.6918780193237,148.02182483333334L132.93425422705312,147.9315625L134.1766304347826,147.72928883333333L135.41900664251207,147.4647556666667L136.66138285024155,147.39162166666668L137.90375905797103,147.250054L139.14613526570048,147.24690716666666L140.38851147342996,147.1971155L141.6308876811594,147.24690716666666L142.87326388888889,147.01041666666666L144.11564009661836,147.33095550000002L145.3580163043478,147.31538066666667L146.6003925120773,147.1971155L147.84276871980677,147.04308L149.08514492753625,146.93262216666668L150.3275211352657,146.68055683333333L151.56989734299515,146.5436098333333L152.81227355072463,146.509393L154.0546497584541,146.56539866666665L155.29702596618358,146.45024049999998L156.53940217391306,146.216857L157.7817783816425,146.08305683333333L159.02415458937196,145.59446116666666L160.26653079710144,145.3859735L161.50890700483092,144.42125000000001L162.7512832125604,144.6453125L163.99365942028984,144.9347415L165.23603562801932,143.4503125L166.4784118357488,143.32583333333335L167.72078804347825,143.20756816666668L168.96316425120773,142.4606931666667L170.2055404589372,142.918179L171.44791666666666,142.91192516666666L172.69029287439614,143.02708333333334L173.9326690821256,142.4544791666667L175.1750452898551,143.06440716666668L176.41742149758454,142.07172066666666L177.659797705314,141.0603125L178.90217391304347,140.5872916666667L180.14455012077295,140.52503216666668L181.38692632850243,141.05409849999998L182.6293025362319,138.70763633333334L183.87167874396135,138.55204733333332L185.1140549516908,139.946214L186.35643115942028,138.53961933333335L187.59880736714976,138.95659466666666L188.84118357487924,137.35083333333336L190.0835597826087,135.68902649999998L191.32593599033817,132.07291666666666L192.56831219806764,134.55003216666665L193.8106884057971,131.6496875L195.05306461352657,133.3052405L196.29544082125602,133.42971966666664L197.5378170289855,131.53763633333332L198.78019323671498,132.4089905L200.02256944444446,131.0646155L201.26494565217394,131.46294883333334L202.50732185990339,131.0646155L203.74969806763283,131.36651233333333L204.9920742753623,126.24729166666667L206.2344504830918,130.0065625L207.47682669082127,131.69947916666666L208.71920289855075,128.33854166666666L209.9615791062802,135.60812500000003L211.20395531400965,137.0396155L212.44633152173913,133.56666666666666L213.6887077294686,135.59565716666668L214.93108393719808,135.59565716666668L216.17346014492753,137.4877405L217.415836352657,135.78239583333334L218.65821256038646,138.0728125L219.90058876811594,140.86114583333332L221.14296497584542,137.3383655L222.38534118357487,137.74916666666664L223.62771739130434,138.60805299999998L224.87009359903382,136.0064583333333L226.1124698067633,135.72165L227.35484601449275,134.96083333333334L228.5972222222222,136.31715833333334L229.83959842995168,138.13754166666666L231.08197463768116,139.30864166666666L232.32435084541063,137.91845833333335L233.5667270531401,136.71150833333334L234.80910326086956,136.30520833333335L236.051479468599,136.81109166666667L237.2938556763285,137.88061666666667L238.53623188405797,137.48825833333333L239.77860809178745,139.09155L241.02098429951693,139.36042500000002L242.26336050724638,138.60558333333336L243.50573671497585,139.94398333333334L244.7481129227053,139.72490000000002L245.99048913043478,140.78845L247.23286533816426,138.85055833333334L248.4752415458937,138.01206666666667L249.7176177536232,139.20308333333332L250.95999396135267,140.04755L252.20237016908214,140.0595L253.4447463768116,139.85635L254.68712258454104,139.31860000000003L255.92949879227052,139.69701666666668L257.171875,139.28673333333333L258.4142512077295,138.98001666666667L259.65662741545896,138.93619999999999L260.89900362318843,138.42633333333333L262.1413798309179,139.08756666666667L263.3837560386474,139.25885L264.6261322463768,138.59761666666668L265.86850845410623,138.48608333333334L267.1108846618357,138.93221666666665L268.3532608695652,139.56955L269.59563707729467,139.09155L270.83801328502415,139.05171666666666L272.0803894927536,138.1236L273.3227657004831,138.15148333333332L274.5651419082126,138.6255L275.80751811594206,138.48608333333334L277.0498943236715,138.35861666666668L278.29227053140096,138.82068333333333L279.53464673913044,138.85653333333335L280.7770229468599,139.03179999999998L282.0193991545894,139.47793333333334L283.2617753623188,139.87228333333334L284.5041515700483,139.42216666666667L285.74652777777777,139.223L286.98890398550725,139.6054L288.2312801932367,139.29868333333334L289.47365640096615,138.59363333333334L290.7160326086956,139.25088333333335L291.9584088164251,139.26283333333333L293.2007850241546,138.47413333333333L294.44316123188406,139.08358333333334L295.68553743961354,138.28691666666666L296.927913647343,138.79678333333334L298.1702898550725,138.66135L299.412666062802,139.88025L300.6550422705314,140.47775L301.8974184782609,140.21883333333335L303.1397946859903,139.9161L304.3821708937198,139.26283333333333L305.62454710144925,138.60558333333336L306.86692330917873,138.06385L308.1092995169082,137.80493333333334L309.3516757246377,137.60576666666665L310.59405193236717,137.20743333333334L311.83642814009664,138.27895L313.0788043478261,138.39845L314.3211805555556,137.5739L315.563556763285,137.27511016666665L316.8059329710145,137.76111666666668L318.0483091787439,137.95231666666666L319.2906853864734,138.05588333333333L320.5330615942029,137.7651L321.77543780193236,134.83735000000001L323.01781400966183,136.116L324.2601902173913,135.31933333333333L325.5025664251208,136.51433333333333L326.74494263285027,138.66537316666665L327.9873188405797,138.1953L329.22969504830917,138.13953333333333L330.47207125603865,138.2192L331.7144474637681,138.54185L332.9568236714976,139.25486666666666L334.1991998792271,138.62948333333335L335.4415760869565,138.86848333333336L336.683952294686,140.60521666666668L337.92632850241546,141.4457L339.16870471014494,141.75639999999999L340.4110809178744,142.6885L341.65345712560384,143.06691666666669L342.8958333333333,142.18261666666666L344.1382095410628,141.42976666666667L345.38058574879227,141.17881666666668L346.62296195652175,140.03161666666668L347.8653381642512,140.1312L349.1077143719807,139.68108333333333L350.3500905797102,139.25486666666666L351.5924667874396,138.45421666666667L352.8348429951691,137.78501666666668L354.0772192028985,137.3588L355.319595410628,138.27496666666667L356.56197161835746,138.07978333333332L357.80434782608694,137.83381250000002L359.0467240338164,137.33689166666667L360.2891002415459,139.223L361.5314764492754,140.33435L362.77385265700485,139.21901666666665L364.01622886473433,140.1531083333333L365.2586050724638,139.74481666666668L366.50098128019323,138.87844166666667L367.7433574879227,139.4390958333333L368.98573369565213,138.38251666666667L370.2281099033816,138.45620833333334L371.4704861111111,138.9123L372.71286231884056,139.38631666666666L373.95523852657004,139.17520000000002L375.1976147342995,139.53768333333332L376.439990942029,139.14333333333332L377.6823671497585,138.5856666666667L378.92474335748796,138.90433333333334L380.1671195652174,139.58548333333334L381.40949577294685,138.89238333333336L382.65187198067633,139.31063333333333L383.8942481884058,139.15926666666667L385.1366243961353,137.73721666666665L386.3790006038647,136.8569L387.6213768115942,136.65175833333333L388.86375301932367,136.74735833333335L390.10612922705315,137.87265000000002L391.3485054347826,137.31498333333334L392.59088164251204,137.76111666666668L393.8332578502415,137.22336666666666L395.075634057971,137.6456L396.3180102657005,138.13156666666669L397.56038647342996,138.89835833333333L398.80276268115944,138.86063616666667L400.0451388888889,138.56575L401.2875150966184,138.42633333333333L402.52989130434787,138.105675L403.7722675120773,136.31516666666667L405.01464371980677,135.59816666666669L406.2570199275362,135.739575L407.49939613526567,136.81706666666668L408.74177234299515,136.19566666666668L409.9841485507246,136.24346666666668L411.2265247584541,135.39700833333333L412.4689009661836,134.31154999999998L413.71127717391306,134.59834999999998L414.95365338164254,134.42706666666666L416.196029589372,134.23985L417.4384057971015,133.17231666666666L418.6807820048309,133.40733333333333L419.9231582125604,133.19223333333332L421.1655344202898,132.8895L422.4079106280193,132.30793333333335L423.6502868357488,131.40371666666667L424.89266304347825,131.03326666666666L426.13503925120773,130.79825L427.3774154589372,130.45568333333333L428.6197916666667,130.99741666666665L429.86216787439616,133.40733333333333L431.1045440821256,132.03308333333334L432.34692028985506,133.3057583333333L433.58929649758454,130.12506666666667L434.831672705314,130.8341L436.0740489130435,131.91358333333332L437.3164251207729,130.89783333333332L438.5588013285024,132.16453333333334L439.8011775362319,131.86976666666666L441.04355374396135,128.53173333333334L442.28592995169083,127.85058333333333L443.5283061594203,127.40046666666667L444.77068236714973,127.55581666666667L446.0130585748792,129.2328L447.2554347826087,127.50005L448.49781099033817,129.63511666666668L449.74018719806764,128.38833333333335L450.9825634057971,129.11728333333335L452.2249396135266,126.92246666666666L453.4673158212561,126.61176666666667L454.7096920289855,126.55600000000001L455.952068236715,125.63186666666667L457.1944444444444,125.49643333333333L458.4368206521739,124.74756666666666L459.67919685990336,123.74775L460.92157306763283,124.01463333333332L462.1639492753623,123.26576666666666L463.4063254830918,122.23010000000001L464.64870169082127,121.68039999999999L465.89107789855075,122.04288333333334L467.1334541062802,120.54116666666667L468.3758303140097,119.71661666666668L469.6182065217391,119.82815000000001L470.8605827294686,116.36663333333331L472.102958937198,115.97228333333334L473.3453351449275,115.42656666666667L474.587711352657,111.65435000000001L475.83008756038646,112.14828333333332L477.07246376811594,113.14411666666666L478.3148399758454,112.24786666666668L479.5572161835749,110.12873333333333L480.7995923913044,110.22035000000001L482.04196859903385,107.24480000000001L483.2843448067633,104.75521666666666L484.52672101449275,103.94261666666667L485.76909722222223,106.95401666666665L487.0114734299517,105.32881666666668L488.2538496376812,109.04128333333333L489.4962258454106,107.90204999999999L490.7386020531401,104.87471666666667L491.98097826086956,102.52056666666667L493.22335446859904,97.47766666666666L494.4657306763285,100.23413333333333L495.70810688405794,96.13926666666667L496.9504830917874,95.21911666666665L498.1928592995169,94.58576666666667L499.4352355072464,94.11971666666666L500.67761171497585,92.39095L501.91998792270533,89.2003L503.1623641304348,86.68283333333333L504.4047403381643,81.69171666666666L505.64711654589377,84.96601666666668L506.8894927536232,86.67885L508.1318689613526,78.11468333333333L509.3742451690821,76.50541666666666L510.61662137681157,68.43518333333333L511.85899758454104,67.83768333333333L513.1013737922706,59.66388333333333L514.34375,68.22805L514.34375,188L513.1013737922706,188L511.85899758454104,188L510.61662137681157,188L509.3742451690821,188L508.1318689613526,188L506.8894927536232,188L505.64711654589377,188L504.4047403381643,188L503.1623641304348,188L501.91998792270533,188L500.67761171497585,188L499.4352355072464,188L498.1928592995169,188L496.9504830917874,188L495.70810688405794,188L494.4657306763285,188L493.22335446859904,188L491.98097826086956,188L490.7386020531401,188L489.4962258454106,188L488.2538496376812,188L487.0114734299517,188L485.76909722222223,188L484.52672101449275,188L483.2843448067633,188L482.04196859903385,188L480.7995923913044,188L479.5572161835749,188L478.3148399758454,188L477.07246376811594,188L475.83008756038646,188L474.587711352657,188L473.3453351449275,188L472.102958937198,188L470.8605827294686,188L469.6182065217391,188L468.3758303140097,188L467.1334541062802,188L465.89107789855075,188L464.64870169082127,188L463.4063254830918,188L462.1639492753623,188L460.92157306763283,188L459.67919685990336,188L458.4368206521739,188L457.1944444444444,188L455.952068236715,188L454.7096920289855,188L453.4673158212561,188L452.2249396135266,188L450.9825634057971,188L449.74018719806764,188L448.49781099033817,188L447.2554347826087,188L446.0130585748792,188L444.77068236714973,188L443.5283061594203,188L442.28592995169083,188L441.04355374396135,188L439.8011775362319,188L438.5588013285024,188L437.3164251207729,188L436.0740489130435,188L434.831672705314,188L433.58929649758454,188L432.34692028985506,188L431.1045440821256,188L429.86216787439616,188L428.6197916666667,188L427.3774154589372,188L426.13503925120773,188L424.89266304347825,188L423.6502868357488,188L422.4079106280193,188L421.1655344202898,188L419.9231582125604,188L418.6807820048309,188L417.4384057971015,188L416.196029589372,188L414.95365338164254,188L413.71127717391306,188L412.4689009661836,188L411.2265247584541,188L409.9841485507246,188L408.74177234299515,188L407.49939613526567,188L406.2570199275362,188L405.01464371980677,188L403.7722675120773,188L402.52989130434787,188L401.2875150966184,188L400.0451388888889,188L398.80276268115944,188L397.56038647342996,188L396.3180102657005,188L395.075634057971,188L393.8332578502415,188L392.59088164251204,188L391.3485054347826,188L390.10612922705315,188L388.86375301932367,188L387.6213768115942,188L386.3790006038647,188L385.1366243961353,188L383.8942481884058,188L382.65187198067633,188L381.40949577294685,188L380.1671195652174,188L378.92474335748796,188L377.6823671497585,188L376.439990942029,188L375.1976147342995,188L373.95523852657004,188L372.71286231884056,188L371.4704861111111,188L370.2281099033816,188L368.98573369565213,188L367.7433574879227,188L366.50098128019323,188L365.2586050724638,188L364.01622886473433,188L362.77385265700485,188L361.5314764492754,188L360.2891002415459,188L359.0467240338164,188L357.80434782608694,188L356.56197161835746,188L355.319595410628,188L354.0772192028985,188L352.8348429951691,188L351.5924667874396,188L350.3500905797102,188L349.1077143719807,188L347.8653381642512,188L346.62296195652175,188L345.38058574879227,188L344.1382095410628,188L342.8958333333333,188L341.65345712560384,188L340.4110809178744,188L339.16870471014494,188L337.92632850241546,188L336.683952294686,188L335.4415760869565,188L334.1991998792271,188L332.9568236714976,188L331.7144474637681,188L330.47207125603865,188L329.22969504830917,188L327.9873188405797,188L326.74494263285027,188L325.5025664251208,188L324.2601902173913,188L323.01781400966183,188L321.77543780193236,188L320.5330615942029,188L319.2906853864734,188L318.0483091787439,188L316.8059329710145,188L315.563556763285,188L314.3211805555556,188L313.0788043478261,188L311.83642814009664,188L310.59405193236717,188L309.3516757246377,188L308.1092995169082,188L306.86692330917873,188L305.62454710144925,188L304.3821708937198,188L303.1397946859903,188L301.8974184782609,188L300.6550422705314,188L299.412666062802,188L298.1702898550725,188L296.927913647343,188L295.68553743961354,188L294.44316123188406,188L293.2007850241546,188L291.9584088164251,188L290.7160326086956,188L289.47365640096615,188L288.2312801932367,188L286.98890398550725,188L285.74652777777777,188L284.5041515700483,188L283.2617753623188,188L282.0193991545894,188L280.7770229468599,188L279.53464673913044,188L278.29227053140096,188L277.0498943236715,188L275.80751811594206,188L274.5651419082126,188L273.3227657004831,188L272.0803894927536,188L270.83801328502415,188L269.59563707729467,188L268.3532608695652,188L267.1108846618357,188L265.86850845410623,188L264.6261322463768,188L263.3837560386474,188L262.1413798309179,188L260.89900362318843,188L259.65662741545896,188L258.4142512077295,188L257.171875,188L255.92949879227052,188L254.68712258454104,188L253.4447463768116,188L252.20237016908214,188L250.95999396135267,188L249.7176177536232,188L248.4752415458937,188L247.23286533816426,188L245.99048913043478,188L244.7481129227053,188L243.50573671497585,188L242.26336050724638,188L241.02098429951693,188L239.77860809178745,188L238.53623188405797,188L237.2938556763285,188L236.051479468599,188L234.80910326086956,188L233.5667270531401,188L232.32435084541063,188L231.08197463768116,188L229.83959842995168,188L228.5972222222222,188L227.35484601449275,188L226.1124698067633,188L224.87009359903382,188L223.62771739130434,188L222.38534118357487,188L221.14296497584542,188L219.90058876811594,188L218.65821256038646,188L217.415836352657,188L216.17346014492753,188L214.93108393719808,188L213.6887077294686,188L212.44633152173913,188L211.20395531400965,188L209.9615791062802,188L208.71920289855075,188L207.47682669082127,188L206.2344504830918,188L204.9920742753623,188L203.74969806763283,188L202.50732185990339,188L201.26494565217394,188L200.02256944444446,188L198.78019323671498,188L197.5378170289855,188L196.29544082125602,188L195.05306461352657,188L193.8106884057971,188L192.56831219806764,188L191.32593599033817,188L190.0835597826087,188L188.84118357487924,188L187.59880736714976,188L186.35643115942028,188L185.1140549516908,188L183.87167874396135,188L182.6293025362319,188L181.38692632850243,188L180.14455012077295,188L178.90217391304347,188L177.659797705314,188L176.41742149758454,188L175.1750452898551,188L173.9326690821256,188L172.69029287439614,188L171.44791666666666,188L170.2055404589372,188L168.96316425120773,188L167.72078804347825,188L166.4784118357488,188L165.23603562801932,188L163.99365942028984,188L162.7512832125604,188L161.50890700483092,188L160.26653079710144,188L159.02415458937196,188L157.7817783816425,188L156.53940217391306,188L155.29702596618358,188L154.0546497584541,188L152.81227355072463,188L151.56989734299515,188L150.3275211352657,188L149.08514492753625,188L147.84276871980677,188L146.6003925120773,188L145.3580163043478,188L144.11564009661836,188L142.87326388888889,188L141.6308876811594,188L140.38851147342996,188L139.14613526570048,188L137.90375905797103,188L136.66138285024155,188L135.41900664251207,188L134.1766304347826,188L132.93425422705312,188L131.6918780193237,188L130.44950181159422,188L129.20712560386474,188L127.96474939613526,188L126.7223731884058,188L125.47999698067633,188L124.23762077294685,188L122.99524456521739,188L121.75286835748793,188L120.51049214975846,188L119.26811594202898,188L118.0257397342995,188L116.78336352657006,188L115.54098731884058,188L114.2986111111111,188L113.05623490338165,188L111.81385869565217,188L110.57148248792271,188L109.32910628019323,188L108.08673007246377,188L106.8443538647343,188L105.60197765700482,188L104.35960144927537,188L103.1172252415459,188L101.87484903381642,188L100.63247282608697,188L99.39009661835749,188L98.14772041062801,188L96.90534420289855,188L95.66296799516908,188L94.42059178743962,188L93.17821557971014,188L91.93583937198068,188L90.69346316425121,188L89.45108695652173,188L88.20871074879227,188L86.9663345410628,188L85.72395833333333,188L84.48158212560386,188L83.2392059178744,188L81.99682971014492,188L80.75445350241546,188L79.51207729468598,188L78.26970108695653,188L77.02732487922705,188L75.78494867149757,188L74.54257246376812,188L73.30019625603865,188L72.05782004830918,188L70.8154438405797,188L69.57306763285024,188L68.33069142512078,188L67.0883152173913,188L65.84593900966185,188L64.60356280193237,188L63.3611865942029,188L62.11881038647343,188L60.87643417874396,188L59.63405797101449,188L58.39168176328503,188L57.14930555555555,188L55.906929347826086,188L54.664553140096615,188L53.42217693236715,188L52.17980072463769,188L50.93742451690821,188L49.695048309178745,188L48.452672101449274,188L47.21029589371981,188L45.96791968599034,188L44.72554347826087,188L43.4831672705314,188L42.24079106280193,188L40.99841485507246,188L39.75603864734299,188L38.513662439613526,188L37.27128623188406,188L36.02891002415459,188L34.78653381642512,188L33.54415760869565,188L32.301781400966185,188L31.059405193236714,188L29.817028985507246,188L28.574652777777775,188L27.332276570048307,188L26.089900362318843,188L24.847524154589372,188L23.605147946859905,188L22.362771739130434,188L21.120395531400966,188L19.878019323671495,188L18.63564311594203,188L17.39326690821256,188L16.150890700483092,188L14.908514492753623,188L13.666138285024154,188L12.423762077294686,188L11.181385869565217,188L9.939009661835748,188L8.69663345410628,188L7.4542572463768115,188L6.211881038647343,188L4.969504830917874,188L3.7271286231884058,188L2.484752415458937,188L1.2423762077294684,188L0,188Z"></path></g><g class="y fin_ax"><g class="tick minor" transform="translate(0,149.10166666666666)" style="opacity: 1;"><line x2="576" y2="0"></line><text dy="-5" x="576" y="0" style="text-anchor: end;">1</text></g><g class="tick minor" transform="translate(0,109.66666666666667)" style="opacity: 1;"><line x2="576" y2="0"></line><text dy="-5" x="576" y="0" style="text-anchor: end;">100</text></g><g class="tick minor" transform="translate(0,69.83333333333334)" style="opacity: 1;"><line x2="576" y2="0"></line><text dy="-5" x="576" y="0" style="text-anchor: end;">200</text></g><g class="tick minor" transform="translate(0,30)" style="opacity: 1;"><line x2="576" y2="0"></line><text dy="-5" x="576" y="0" style="text-anchor: end;">300</text></g><path class="domain" d="M576,30H0V149.5H576"></path><line class="fin_rl" x1="0" x2="576" y1="68.22805" y2="68.22805"></line><g class="tick minor fin_xax"><line x1="0" x2="576" y1="188" y2="188"></line></g></g><g class="fin_tck"><path class="line" d="M0,149.46196713333333L1.2423762077294684,149.45538666666667L2.484752415458937,149.45192116666666L3.7271286231884058,149.457458L4.969504830917874,149.46058093333332L6.211881038647343,149.46058093333332L7.4542572463768115,149.46092349999998L8.69663345410628,149.44638433333336L9.939009661835748,149.43116799999999L11.181385869565217,149.43327916666667L12.423762077294686,149.39886316666667L13.666138285024154,149.39384416666664L14.908514492753623,149.36619983333335L16.150890700483092,149.35616183333335L17.39326690821256,149.340587L18.63564311594203,149.3589103333333L19.878019323671495,149.369984L21.120395531400966,149.33576716666667L22.362771739130434,149.31672683333332L23.605147946859905,149.36237583333332L24.847524154589372,149.376198L26.089900362318843,149.34994783333332L27.332276570048307,149.34580516666668L28.574652777777775,149.33576716666667L29.817028985507246,149.343694L31.059405193236714,149.3492308333333L32.301781400966185,149.33955133333333L33.54415760869565,149.3146555L34.78653381642512,149.33540866666667L36.02891002415459,149.36169866666665L37.27128623188406,149.35544483333334L38.513662439613526,149.36444716666668L39.75603864734299,149.36930683333335L40.99841485507246,149.35269633333334L42.24079106280193,149.3350501666667L43.4831672705314,149.33540866666667L44.72554347826087,149.36201733333334L45.96791968599034,149.34544666666667L47.21029589371981,149.33266016666667L48.452672101449274,149.3533735L49.695048309178745,149.34855366666667L50.93742451690821,149.33748L52.17980072463769,149.31051283333335L53.42217693236715,149.27386616666666L54.664553140096615,149.259327L55.906929347826086,149.259327L57.14930555555555,149.24411066666667L58.39168176328503,149.226823L59.63405797101449,149.19364183333334L60.87643417874396,149.17910266666667L62.11881038647343,149.09612983333335L63.3611865942029,149.07951933333334L64.60356280193237,149.13209933333334L65.84593900966185,149.15974366666666L67.0883152173913,149.15145833333332L68.33069142512078,149.14731566666666L69.57306763285024,149.1002725L70.8154438405797,149.083662L72.05782004830918,148.9571115L73.30019625603865,148.92600166666668L74.54257246376812,148.91285666666667L75.78494867149757,148.95229166666664L77.02732487922705,148.8928205L78.26970108695653,148.9346455L79.51207729468598,148.89003216666666L80.75445350241546,148.79256L81.99682971014492,148.76141033333334L83.2392059178744,148.7209795L84.48158212560386,148.69297666666665L85.72395833333333,148.57678283333334L86.9663345410628,148.50209533333333L88.20871074879227,148.47512816666668L89.45108695652173,148.51659466666666L90.69346316425121,148.58506816666667L91.93583937198068,148.49588133333333L93.17821557971014,148.62864583333334L94.42059178743962,148.594429L95.66296799516908,148.57264016666667L96.90534420289855,148.49795266666666L98.14772041062801,148.39526233333333L99.39009661835749,148.34077033333332L100.63247282608697,148.43724666666665L101.87484903381642,148.42326516666665L103.1172252415459,148.4621425L104.35960144927537,148.34857766666667L105.60197765700482,148.43569316666665L106.8443538647343,148.34702416666664L108.08673007246377,148.40458333333333L109.32910628019323,148.57885416666664L110.57148248792271,148.56483283333333L111.81385869565217,148.47305683333335L113.05623490338165,148.50261316666666L114.2986111111111,148.50416666666666L115.54098731884058,148.49639916666666L116.78336352657006,148.44035366666665L118.0257397342995,148.47305683333335L119.26811594202898,148.445054L120.51049214975846,148.34857766666667L121.75286835748793,148.161839L122.99524456521739,148.21473766666668L124.23762077294685,148.21784466666665L125.47999698067633,148.0529346666667L126.7223731884058,148.10272633333332L127.96474939613526,147.9315625L129.20712560386474,147.93466949999998L130.44950181159422,147.97824716666665L131.6918780193237,148.02182483333334L132.93425422705312,147.9315625L134.1766304347826,147.72928883333333L135.41900664251207,147.4647556666667L136.66138285024155,147.39162166666668L137.90375905797103,147.250054L139.14613526570048,147.24690716666666L140.38851147342996,147.1971155L141.6308876811594,147.24690716666666L142.87326388888889,147.01041666666666L144.11564009661836,147.33095550000002L145.3580163043478,147.31538066666667L146.6003925120773,147.1971155L147.84276871980677,147.04308L149.08514492753625,146.93262216666668L150.3275211352657,146.68055683333333L151.56989734299515,146.5436098333333L152.81227355072463,146.509393L154.0546497584541,146.56539866666665L155.29702596618358,146.45024049999998L156.53940217391306,146.216857L157.7817783816425,146.08305683333333L159.02415458937196,145.59446116666666L160.26653079710144,145.3859735L161.50890700483092,144.42125000000001L162.7512832125604,144.6453125L163.99365942028984,144.9347415L165.23603562801932,143.4503125L166.4784118357488,143.32583333333335L167.72078804347825,143.20756816666668L168.96316425120773,142.4606931666667L170.2055404589372,142.918179L171.44791666666666,142.91192516666666L172.69029287439614,143.02708333333334L173.9326690821256,142.4544791666667L175.1750452898551,143.06440716666668L176.41742149758454,142.07172066666666L177.659797705314,141.0603125L178.90217391304347,140.5872916666667L180.14455012077295,140.52503216666668L181.38692632850243,141.05409849999998L182.6293025362319,138.70763633333334L183.87167874396135,138.55204733333332L185.1140549516908,139.946214L186.35643115942028,138.53961933333335L187.59880736714976,138.95659466666666L188.84118357487924,137.35083333333336L190.0835597826087,135.68902649999998L191.32593599033817,132.07291666666666L192.56831219806764,134.55003216666665L193.8106884057971,131.6496875L195.05306461352657,133.3052405L196.29544082125602,133.42971966666664L197.5378170289855,131.53763633333332L198.78019323671498,132.4089905L200.02256944444446,131.0646155L201.26494565217394,131.46294883333334L202.50732185990339,131.0646155L203.74969806763283,131.36651233333333L204.9920742753623,126.24729166666667L206.2344504830918,130.0065625L207.47682669082127,131.69947916666666L208.71920289855075,128.33854166666666L209.9615791062802,135.60812500000003L211.20395531400965,137.0396155L212.44633152173913,133.56666666666666L213.6887077294686,135.59565716666668L214.93108393719808,135.59565716666668L216.17346014492753,137.4877405L217.415836352657,135.78239583333334L218.65821256038646,138.0728125L219.90058876811594,140.86114583333332L221.14296497584542,137.3383655L222.38534118357487,137.74916666666664L223.62771739130434,138.60805299999998L224.87009359903382,136.0064583333333L226.1124698067633,135.72165L227.35484601449275,134.96083333333334L228.5972222222222,136.31715833333334L229.83959842995168,138.13754166666666L231.08197463768116,139.30864166666666L232.32435084541063,137.91845833333335L233.5667270531401,136.71150833333334L234.80910326086956,136.30520833333335L236.051479468599,136.81109166666667L237.2938556763285,137.88061666666667L238.53623188405797,137.48825833333333L239.77860809178745,139.09155L241.02098429951693,139.36042500000002L242.26336050724638,138.60558333333336L243.50573671497585,139.94398333333334L244.7481129227053,139.72490000000002L245.99048913043478,140.78845L247.23286533816426,138.85055833333334L248.4752415458937,138.01206666666667L249.7176177536232,139.20308333333332L250.95999396135267,140.04755L252.20237016908214,140.0595L253.4447463768116,139.85635L254.68712258454104,139.31860000000003L255.92949879227052,139.69701666666668L257.171875,139.28673333333333L258.4142512077295,138.98001666666667L259.65662741545896,138.93619999999999L260.89900362318843,138.42633333333333L262.1413798309179,139.08756666666667L263.3837560386474,139.25885L264.6261322463768,138.59761666666668L265.86850845410623,138.48608333333334L267.1108846618357,138.93221666666665L268.3532608695652,139.56955L269.59563707729467,139.09155L270.83801328502415,139.05171666666666L272.0803894927536,138.1236L273.3227657004831,138.15148333333332L274.5651419082126,138.6255L275.80751811594206,138.48608333333334L277.0498943236715,138.35861666666668L278.29227053140096,138.82068333333333L279.53464673913044,138.85653333333335L280.7770229468599,139.03179999999998L282.0193991545894,139.47793333333334L283.2617753623188,139.87228333333334L284.5041515700483,139.42216666666667L285.74652777777777,139.223L286.98890398550725,139.6054L288.2312801932367,139.29868333333334L289.47365640096615,138.59363333333334L290.7160326086956,139.25088333333335L291.9584088164251,139.26283333333333L293.2007850241546,138.47413333333333L294.44316123188406,139.08358333333334L295.68553743961354,138.28691666666666L296.927913647343,138.79678333333334L298.1702898550725,138.66135L299.412666062802,139.88025L300.6550422705314,140.47775L301.8974184782609,140.21883333333335L303.1397946859903,139.9161L304.3821708937198,139.26283333333333L305.62454710144925,138.60558333333336L306.86692330917873,138.06385L308.1092995169082,137.80493333333334L309.3516757246377,137.60576666666665L310.59405193236717,137.20743333333334L311.83642814009664,138.27895L313.0788043478261,138.39845L314.3211805555556,137.5739L315.563556763285,137.27511016666665L316.8059329710145,137.76111666666668L318.0483091787439,137.95231666666666L319.2906853864734,138.05588333333333L320.5330615942029,137.7651L321.77543780193236,134.83735000000001L323.01781400966183,136.116L324.2601902173913,135.31933333333333L325.5025664251208,136.51433333333333L326.74494263285027,138.66537316666665L327.9873188405797,138.1953L329.22969504830917,138.13953333333333L330.47207125603865,138.2192L331.7144474637681,138.54185L332.9568236714976,139.25486666666666L334.1991998792271,138.62948333333335L335.4415760869565,138.86848333333336L336.683952294686,140.60521666666668L337.92632850241546,141.4457L339.16870471014494,141.75639999999999L340.4110809178744,142.6885L341.65345712560384,143.06691666666669L342.8958333333333,142.18261666666666L344.1382095410628,141.42976666666667L345.38058574879227,141.17881666666668L346.62296195652175,140.03161666666668L347.8653381642512,140.1312L349.1077143719807,139.68108333333333L350.3500905797102,139.25486666666666L351.5924667874396,138.45421666666667L352.8348429951691,137.78501666666668L354.0772192028985,137.3588L355.319595410628,138.27496666666667L356.56197161835746,138.07978333333332L357.80434782608694,137.83381250000002L359.0467240338164,137.33689166666667L360.2891002415459,139.223L361.5314764492754,140.33435L362.77385265700485,139.21901666666665L364.01622886473433,140.1531083333333L365.2586050724638,139.74481666666668L366.50098128019323,138.87844166666667L367.7433574879227,139.4390958333333L368.98573369565213,138.38251666666667L370.2281099033816,138.45620833333334L371.4704861111111,138.9123L372.71286231884056,139.38631666666666L373.95523852657004,139.17520000000002L375.1976147342995,139.53768333333332L376.439990942029,139.14333333333332L377.6823671497585,138.5856666666667L378.92474335748796,138.90433333333334L380.1671195652174,139.58548333333334L381.40949577294685,138.89238333333336L382.65187198067633,139.31063333333333L383.8942481884058,139.15926666666667L385.1366243961353,137.73721666666665L386.3790006038647,136.8569L387.6213768115942,136.65175833333333L388.86375301932367,136.74735833333335L390.10612922705315,137.87265000000002L391.3485054347826,137.31498333333334L392.59088164251204,137.76111666666668L393.8332578502415,137.22336666666666L395.075634057971,137.6456L396.3180102657005,138.13156666666669L397.56038647342996,138.89835833333333L398.80276268115944,138.86063616666667L400.0451388888889,138.56575L401.2875150966184,138.42633333333333L402.52989130434787,138.105675L403.7722675120773,136.31516666666667L405.01464371980677,135.59816666666669L406.2570199275362,135.739575L407.49939613526567,136.81706666666668L408.74177234299515,136.19566666666668L409.9841485507246,136.24346666666668L411.2265247584541,135.39700833333333L412.4689009661836,134.31154999999998L413.71127717391306,134.59834999999998L414.95365338164254,134.42706666666666L416.196029589372,134.23985L417.4384057971015,133.17231666666666L418.6807820048309,133.40733333333333L419.9231582125604,133.19223333333332L421.1655344202898,132.8895L422.4079106280193,132.30793333333335L423.6502868357488,131.40371666666667L424.89266304347825,131.03326666666666L426.13503925120773,130.79825L427.3774154589372,130.45568333333333L428.6197916666667,130.99741666666665L429.86216787439616,133.40733333333333L431.1045440821256,132.03308333333334L432.34692028985506,133.3057583333333L433.58929649758454,130.12506666666667L434.831672705314,130.8341L436.0740489130435,131.91358333333332L437.3164251207729,130.89783333333332L438.5588013285024,132.16453333333334L439.8011775362319,131.86976666666666L441.04355374396135,128.53173333333334L442.28592995169083,127.85058333333333L443.5283061594203,127.40046666666667L444.77068236714973,127.55581666666667L446.0130585748792,129.2328L447.2554347826087,127.50005L448.49781099033817,129.63511666666668L449.74018719806764,128.38833333333335L450.9825634057971,129.11728333333335L452.2249396135266,126.92246666666666L453.4673158212561,126.61176666666667L454.7096920289855,126.55600000000001L455.952068236715,125.63186666666667L457.1944444444444,125.49643333333333L458.4368206521739,124.74756666666666L459.67919685990336,123.74775L460.92157306763283,124.01463333333332L462.1639492753623,123.26576666666666L463.4063254830918,122.23010000000001L464.64870169082127,121.68039999999999L465.89107789855075,122.04288333333334L467.1334541062802,120.54116666666667L468.3758303140097,119.71661666666668L469.6182065217391,119.82815000000001L470.8605827294686,116.36663333333331L472.102958937198,115.97228333333334L473.3453351449275,115.42656666666667L474.587711352657,111.65435000000001L475.83008756038646,112.14828333333332L477.07246376811594,113.14411666666666L478.3148399758454,112.24786666666668L479.5572161835749,110.12873333333333L480.7995923913044,110.22035000000001L482.04196859903385,107.24480000000001L483.2843448067633,104.75521666666666L484.52672101449275,103.94261666666667L485.76909722222223,106.95401666666665L487.0114734299517,105.32881666666668L488.2538496376812,109.04128333333333L489.4962258454106,107.90204999999999L490.7386020531401,104.87471666666667L491.98097826086956,102.52056666666667L493.22335446859904,97.47766666666666L494.4657306763285,100.23413333333333L495.70810688405794,96.13926666666667L496.9504830917874,95.21911666666665L498.1928592995169,94.58576666666667L499.4352355072464,94.11971666666666L500.67761171497585,92.39095L501.91998792270533,89.2003L503.1623641304348,86.68283333333333L504.4047403381643,81.69171666666666L505.64711654589377,84.96601666666668L506.8894927536232,86.67885L508.1318689613526,78.11468333333333L509.3742451690821,76.50541666666666L510.61662137681157,68.43518333333333L511.85899758454104,67.83768333333333L513.1013737922706,59.66388333333333L514.34375,68.22805" stroke-width="2px" stroke-dasharray="679.3202514648438" stroke-dashoffset="0"></path></g><g transform="translate(478.3148399758454,28)" style="visibility: visible;"><line x1="0" x2="0" y1="0" y2="161" class="fin_hl"></line></g><g style="visibility: hidden;"><line x1="0" x2="0" y1="0" y2="161" class="fin_hl"></line></g><g opacity="1" style="visibility: visible;" transform="translate(478.3148399758454,112.24786666666668)"><circle cx="0" cy="0" r="4" class="fin_c"></circle></g><g style="visibility: hidden;"><circle cx="0" cy="0" r="4" class="fin_c"></circle></g><g><rect y="187.98516685277403" x="7.454" height="0.014833147225971288" width="1" class="fin_b"></rect></g><g><rect y="187.96823322805704" x="12.424" height="0.031766771942955074" width="1" class="fin_b"></rect></g><g><rect y="187.9527825247148" x="17.393" height="0.047217475285208366" width="1" class="fin_b"></rect></g><g><rect y="187.93435417818773" x="22.363" height="0.06564582181226797" width="1" class="fin_b"></rect></g><g><rect y="187.87356620225822" x="27.332" height="0.12643379774178243" width="1" class="fin_b"></rect></g><g><rect y="187.94580453394872" x="32.302" height="0.05419546605128289" width="1" class="fin_b"></rect></g><g><rect y="187.9453482504488" x="37.271" height="0.05465174955119778" width="1" class="fin_b"></rect></g><g><rect y="187.9275059922104" x="42.241" height="0.0724940077896008" width="1" class="fin_b"></rect></g><g><rect y="187.93883047666108" x="47.210" height="0.06116952333891845" width="1" class="fin_b"></rect></g><g><rect y="187.95107539506853" x="52.180" height="0.04892460493147155" width="1" class="fin_b"></rect></g><g><rect y="187.90211538883102" x="57.149" height="0.09788461116897906" width="1" class="fin_b"></rect></g><g><rect y="187.91319599761798" x="62.119" height="0.08680400238202424" width="1" class="fin_b"></rect></g><g><rect y="187.88200351352836" x="67.088" height="0.11799648647163963" width="1" class="fin_b"></rect></g><g><rect y="187.85332058868835" x="72.058" height="0.14667941131165207" width="1" class="fin_b"></rect></g><g><rect y="187.84568570702152" x="77.027" height="0.15431429297848354" width="1" class="fin_b"></rect></g><g><rect y="187.81734892828487" x="81.997" height="0.18265107171512796" width="1" class="fin_b"></rect></g><g><rect y="187.87537560234412" x="86.966" height="0.12462439765587874" width="1" class="fin_b"></rect></g><g><rect y="187.7290620045281" x="91.936" height="0.2709379954719111" width="1" class="fin_b"></rect></g><g><rect y="187.76048263036768" x="96.905" height="0.23951736963232406" width="1" class="fin_b"></rect></g><g><rect y="187.83955734760013" x="101.875" height="0.16044265239986544" width="1" class="fin_b"></rect></g><g><rect y="187.64270248521066" x="106.844" height="0.35729751478933736" width="1" class="fin_b"></rect></g><g><rect y="187.41517042440822" x="111.814" height="0.5848295755917832" width="1" class="fin_b"></rect></g><g><rect y="187.7915767774961" x="116.783" height="0.2084232225039102" width="1" class="fin_b"></rect></g><g><rect y="187.58625313600888" x="121.753" height="0.4137468639911219" width="1" class="fin_b"></rect></g><g><rect y="187.4997913462518" x="126.722" height="0.5002086537481887" width="1" class="fin_b"></rect></g><g><rect y="187.5537980053376" x="131.692" height="0.4462019946624025" width="1" class="fin_b"></rect></g><g><rect y="187.19490349829852" x="136.661" height="0.8050965017014846" width="1" class="fin_b"></rect></g><g><rect y="187.2902510158688" x="141.631" height="0.7097489841312097" width="1" class="fin_b"></rect></g><g><rect y="187.2462393255184" x="146.600" height="0.7537606744816117" width="1" class="fin_b"></rect></g><g><rect y="187.54788992070928" x="151.570" height="0.4521100792907191" width="1" class="fin_b"></rect></g><g><rect y="187.44453777449812" x="156.539" height="0.5554622255018842" width="1" class="fin_b"></rect></g><g><rect y="187.27236942284594" x="161.509" height="0.7276305771540592" width="1" class="fin_b"></rect></g><g><rect y="186.2998444110216" x="166.478" height="1.7001555889783901" width="1" class="fin_b"></rect></g><g><rect y="187.20210569733612" x="171.448" height="0.7978943026638774" width="1" class="fin_b"></rect></g><g><rect y="187.21124316776994" x="176.417" height="0.7887568322300638" width="1" class="fin_b"></rect></g><g><rect y="186.28673806083413" x="181.387" height="1.713261939165875" width="1" class="fin_b"></rect></g><g><rect y="185.0274585367001" x="186.356" height="2.9725414632999048" width="1" class="fin_b"></rect></g><g><rect y="185.70256537614313" x="191.326" height="2.297434623856873" width="1" class="fin_b"></rect></g><g><rect y="184.2927791661679" x="196.295" height="3.7072208338321104" width="1" class="fin_b"></rect></g><g><rect y="184.00602858733654" x="201.265" height="3.9939714126634556" width="1" class="fin_b"></rect></g><g><rect y="183.4900702858841" x="206.234" height="4.509929714115913" width="1" class="fin_b"></rect></g><g><rect y="182.96966322030738" x="211.204" height="5.030336779692618" width="1" class="fin_b"></rect></g><g><rect y="182.7041770259639" x="216.173" height="5.295822974036099" width="1" class="fin_b"></rect></g><g><rect y="178.4878421431782" x="221.143" height="9.512157856821801" width="1" class="fin_b"></rect></g><g><rect y="181.6865900850437" x="226.112" height="6.31340991495631" width="1" class="fin_b"></rect></g><g><rect y="181.54666445622658" x="231.082" height="6.45333554377342" width="1" class="fin_b"></rect></g><g><rect y="183.56292224021243" x="236.051" height="4.43707775978757" width="1" class="fin_b"></rect></g><g><rect y="182.96871918547998" x="241.021" height="5.0312808145200165" width="1" class="fin_b"></rect></g><g><rect y="180.94485558823305" x="245.990" height="7.055144411766946" width="1" class="fin_b"></rect></g><g><rect y="182.0952517874325" x="250.960" height="5.904748212567512" width="1" class="fin_b"></rect></g><g><rect y="177.4076156986884" x="255.929" height="10.592384301311597" width="1" class="fin_b"></rect></g><g><rect y="179.51073786395042" x="260.899" height="8.489262136049575" width="1" class="fin_b"></rect></g><g><rect y="180.68974594936915" x="265.869" height="7.310254050630846" width="1" class="fin_b"></rect></g><g><rect y="178.85856178780477" x="270.838" height="9.141438212195226" width="1" class="fin_b"></rect></g><g><rect y="177.51379790397306" x="275.808" height="10.486202096026943" width="1" class="fin_b"></rect></g><g><rect y="176.85057205751147" x="280.777" height="11.14942794248853" width="1" class="fin_b"></rect></g><g><rect y="176.57188896430665" x="285.747" height="11.428111035693348" width="1" class="fin_b"></rect></g><g><rect y="177.5782858670695" x="290.716" height="10.421714132930504" width="1" class="fin_b"></rect></g><g><rect y="177.16802874582237" x="295.686" height="10.831971254177631" width="1" class="fin_b"></rect></g><g><rect y="155" x="300.655" height="33" width="1" class="fin_b"></rect></g><g><rect y="181.1489864810506" x="305.625" height="6.851013518949401" width="1" class="fin_b"></rect></g><g><rect y="178.91018900710802" x="310.594" height="9.089810992891984" width="1" class="fin_b"></rect></g><g><rect y="176.67911125996238" x="315.564" height="11.320888740037617" width="1" class="fin_b"></rect></g><g><rect y="179.10165807213744" x="320.533" height="8.89834192786256" width="1" class="fin_b"></rect></g><g><rect y="172.44159459573626" x="325.503" height="15.558405404263738" width="1" class="fin_b"></rect></g><g><rect y="176.10812855121065" x="330.472" height="11.891871448789345" width="1" class="fin_b"></rect></g><g><rect y="177.13318583639423" x="335.442" height="10.866814163605767" width="1" class="fin_b"></rect></g><g><rect y="178.8252831440857" x="340.411" height="9.174716855914312" width="1" class="fin_b"></rect></g><g><rect y="175.43501791274497" x="345.381" height="12.564982087255032" width="1" class="fin_b"></rect></g><g><rect y="178.80146581408098" x="350.350" height="9.198534185919016" width="1" class="fin_b"></rect></g><g><rect y="174.49383477852172" x="355.320" height="13.506165221478284" width="1" class="fin_b"></rect></g><g><rect y="178.76191358691622" x="360.289" height="9.238086413083778" width="1" class="fin_b"></rect></g><g><rect y="176.51631493206384" x="365.259" height="11.483685067936165" width="1" class="fin_b"></rect></g><g><rect y="177.01396965692552" x="370.228" height="10.986030343074475" width="1" class="fin_b"></rect></g><g><rect y="168.56171262407202" x="375.198" height="19.438287375927985" width="1" class="fin_b"></rect></g><g><rect y="177.36704446459703" x="380.167" height="10.63295553540297" width="1" class="fin_b"></rect></g><g><rect y="179.8922678873946" x="385.137" height="8.10773211260539" width="1" class="fin_b"></rect></g><g><rect y="181.47316745076768" x="390.106" height="6.526832549232324" width="1" class="fin_b"></rect></g><g><rect y="180.77508929386445" x="395.076" height="7.224910706135546" width="1" class="fin_b"></rect></g><g><rect y="178.30586908514306" x="400.045" height="9.694130914856942" width="1" class="fin_b"></rect></g><g><rect y="179.2428511463799" x="405.015" height="8.757148853620095" width="1" class="fin_b"></rect></g><g><rect y="180.44485411079472" x="409.984" height="7.555145889205278" width="1" class="fin_b"></rect></g><g><rect y="181.13700384698603" x="414.954" height="6.862996153013967" width="1" class="fin_b"></rect></g><g><rect y="181.7794776445276" x="419.923" height="6.220522355472411" width="1" class="fin_b"></rect></g><g><rect y="183.3982996769402" x="424.893" height="4.601700323059788" width="1" class="fin_b"></rect></g><g><rect y="181.82674086616714" x="429.862" height="6.1732591338328575" width="1" class="fin_b"></rect></g><g><rect y="181.31544633277093" x="434.832" height="6.684553667229068" width="1" class="fin_b"></rect></g><g><rect y="182.62893721420917" x="439.801" height="5.371062785790826" width="1" class="fin_b"></rect></g><g><rect y="179.5899506856112" x="444.771" height="8.4100493143888" width="1" class="fin_b"></rect></g><g><rect y="182.33267194436092" x="449.740" height="5.667328055639075" width="1" class="fin_b"></rect></g><g><rect y="183.67877671166062" x="454.710" height="4.321223288339382" width="1" class="fin_b"></rect></g><g><rect y="183.59684105754886" x="459.679" height="4.403158942451142" width="1" class="fin_b"></rect></g><g><rect y="183.50539755667265" x="464.649" height="4.494602443327352" width="1" class="fin_b"></rect></g><g><rect y="184.36180593071023" x="469.618" height="3.638194069289767" width="1" class="fin_b"></rect></g><g><rect y="182.98029281645557" x="474.588" height="5.019707183544426" width="1" class="fin_b"></rect></g><g><rect y="181.99360271938482" x="479.557" height="6.006397280615175" width="1" class="fin_b"></rect></g><g><rect y="184.04375103899707" x="484.527" height="3.9562489610029274" width="1" class="fin_b"></rect></g><g><rect y="181.19734604180303" x="489.496" height="6.80265395819697" width="1" class="fin_b"></rect></g><g><rect y="183.8581668510731" x="494.466" height="4.1418331489269065" width="1" class="fin_b"></rect></g><g><rect y="183.6331203553017" x="499.435" height="4.366879644698287" width="1" class="fin_b"></rect></g><g><rect y="184.44232588659392" x="504.405" height="3.5576741134060796" width="1" class="fin_b"></rect></g><g><rect y="177.3710310450037" x="509.374" height="10.62896895499631" width="1" class="fin_b"></rect></g><g><rect y="182.2308212855428" x="514.344" height="5.769178714457212" width="1" class="fin_b"></rect></g><g class="tick" transform="translate(576, 0)"><text x="0" y="183" style="text-anchor: end;">Vol</text></g></g></svg>